<?xml version="1.0" encoding="utf-8" standalone="no"?>
<!DOCTYPE svg PUBLIC "-//W3C//DTD SVG 1.1//EN"
  "http://www.w3.org/Graphics/SVG/1.1/DTD/svg11.dtd">
<svg xmlns:xlink="http://www.w3.org/1999/xlink" width="1080pt" height="288pt" viewBox="0 0 1080 288" xmlns="http://www.w3.org/2000/svg" version="1.1">
 <metadata>
  <rdf:RDF xmlns:dc="http://purl.org/dc/elements/1.1/" xmlns:cc="http://creativecommons.org/ns#" xmlns:rdf="http://www.w3.org/1999/02/22-rdf-syntax-ns#">
   <cc:Work>
    <dc:type rdf:resource="http://purl.org/dc/dcmitype/StillImage"/>
    <dc:date>2024-08-20T22:51:42.311981</dc:date>
    <dc:format>image/svg+xml</dc:format>
    <dc:creator>
     <cc:Agent>
      <dc:title>Matplotlib v3.8.3, https://matplotlib.org/</dc:title>
     </cc:Agent>
    </dc:creator>
   </cc:Work>
  </rdf:RDF>
 </metadata>
 <defs>
  <style type="text/css">*{stroke-linejoin: round; stroke-linecap: butt}</style>
 </defs>
 <g id="figure_1">
  <g id="patch_1">
   <path d="M 0 288 
L 1080 288 
L 1080 0 
L 0 0 
z
" style="fill: #ffffff"/>
  </g>
  <g id="axes_1">
   <g id="patch_2">
    <path d="M 63.135 252.92 
L 1069.2 252.92 
L 1069.2 17.64 
L 63.135 17.64 
z
" style="fill: #ffffff"/>
   </g>
   <g id="matplotlib.axis_1">
    <g id="xtick_1">
     <g id="line2d_1">
      <path d="M 63.135 252.92 
L 63.135 17.64 
" clip-path="url(#p6de5b11a20)" style="fill: none; stroke: #b0b0b0; stroke-width: 0.8; stroke-linecap: square"/>
     </g>
     <g id="line2d_2">
      <defs>
       <path id="m6bf21af012" d="M 0 0 
L 0 3.5 
" style="stroke: #000000; stroke-width: 0.8"/>
      </defs>
      <g>
       <use xlink:href="#m6bf21af012" x="63.135" y="252.92" style="stroke: #000000; stroke-width: 0.8"/>
      </g>
     </g>
     <g id="text_1">
      <!-- 2019-07-01 -->
      <g transform="translate(10.830938 273.597188) scale(0.18 -0.18)">
       <defs>
        <path id="DejaVuSans-32" d="M 1228 531 
L 3431 531 
L 3431 0 
L 469 0 
L 469 531 
Q 828 903 1448 1529 
Q 2069 2156 2228 2338 
Q 2531 2678 2651 2914 
Q 2772 3150 2772 3378 
Q 2772 3750 2511 3984 
Q 2250 4219 1831 4219 
Q 1534 4219 1204 4116 
Q 875 4013 500 3803 
L 500 4441 
Q 881 4594 1212 4672 
Q 1544 4750 1819 4750 
Q 2544 4750 2975 4387 
Q 3406 4025 3406 3419 
Q 3406 3131 3298 2873 
Q 3191 2616 2906 2266 
Q 2828 2175 2409 1742 
Q 1991 1309 1228 531 
z
" transform="scale(0.015625)"/>
        <path id="DejaVuSans-30" d="M 2034 4250 
Q 1547 4250 1301 3770 
Q 1056 3291 1056 2328 
Q 1056 1369 1301 889 
Q 1547 409 2034 409 
Q 2525 409 2770 889 
Q 3016 1369 3016 2328 
Q 3016 3291 2770 3770 
Q 2525 4250 2034 4250 
z
M 2034 4750 
Q 2819 4750 3233 4129 
Q 3647 3509 3647 2328 
Q 3647 1150 3233 529 
Q 2819 -91 2034 -91 
Q 1250 -91 836 529 
Q 422 1150 422 2328 
Q 422 3509 836 4129 
Q 1250 4750 2034 4750 
z
" transform="scale(0.015625)"/>
        <path id="DejaVuSans-31" d="M 794 531 
L 1825 531 
L 1825 4091 
L 703 3866 
L 703 4441 
L 1819 4666 
L 2450 4666 
L 2450 531 
L 3481 531 
L 3481 0 
L 794 0 
L 794 531 
z
" transform="scale(0.015625)"/>
        <path id="DejaVuSans-39" d="M 703 97 
L 703 672 
Q 941 559 1184 500 
Q 1428 441 1663 441 
Q 2288 441 2617 861 
Q 2947 1281 2994 2138 
Q 2813 1869 2534 1725 
Q 2256 1581 1919 1581 
Q 1219 1581 811 2004 
Q 403 2428 403 3163 
Q 403 3881 828 4315 
Q 1253 4750 1959 4750 
Q 2769 4750 3195 4129 
Q 3622 3509 3622 2328 
Q 3622 1225 3098 567 
Q 2575 -91 1691 -91 
Q 1453 -91 1209 -44 
Q 966 3 703 97 
z
M 1959 2075 
Q 2384 2075 2632 2365 
Q 2881 2656 2881 3163 
Q 2881 3666 2632 3958 
Q 2384 4250 1959 4250 
Q 1534 4250 1286 3958 
Q 1038 3666 1038 3163 
Q 1038 2656 1286 2365 
Q 1534 2075 1959 2075 
z
" transform="scale(0.015625)"/>
        <path id="DejaVuSans-2d" d="M 313 2009 
L 1997 2009 
L 1997 1497 
L 313 1497 
L 313 2009 
z
" transform="scale(0.015625)"/>
        <path id="DejaVuSans-37" d="M 525 4666 
L 3525 4666 
L 3525 4397 
L 1831 0 
L 1172 0 
L 2766 4134 
L 525 4134 
L 525 4666 
z
" transform="scale(0.015625)"/>
       </defs>
       <use xlink:href="#DejaVuSans-32"/>
       <use xlink:href="#DejaVuSans-30" x="63.623047"/>
       <use xlink:href="#DejaVuSans-31" x="127.246094"/>
       <use xlink:href="#DejaVuSans-39" x="190.869141"/>
       <use xlink:href="#DejaVuSans-2d" x="254.492188"/>
       <use xlink:href="#DejaVuSans-30" x="290.576172"/>
       <use xlink:href="#DejaVuSans-37" x="354.199219"/>
       <use xlink:href="#DejaVuSans-2d" x="417.822266"/>
       <use xlink:href="#DejaVuSans-30" x="453.90625"/>
       <use xlink:href="#DejaVuSans-31" x="517.529297"/>
      </g>
     </g>
    </g>
    <g id="xtick_2">
     <g id="line2d_3">
      <path d="M 193.037139 252.92 
L 193.037139 17.64 
" clip-path="url(#p6de5b11a20)" style="fill: none; stroke: #b0b0b0; stroke-width: 0.8; stroke-linecap: square"/>
     </g>
     <g id="line2d_4">
      <g>
       <use xlink:href="#m6bf21af012" x="193.037139" y="252.92" style="stroke: #000000; stroke-width: 0.8"/>
      </g>
     </g>
     <g id="text_2">
      <!-- 2019-07-05 -->
      <g transform="translate(140.733076 273.597188) scale(0.18 -0.18)">
       <defs>
        <path id="DejaVuSans-35" d="M 691 4666 
L 3169 4666 
L 3169 4134 
L 1269 4134 
L 1269 2991 
Q 1406 3038 1543 3061 
Q 1681 3084 1819 3084 
Q 2600 3084 3056 2656 
Q 3513 2228 3513 1497 
Q 3513 744 3044 326 
Q 2575 -91 1722 -91 
Q 1428 -91 1123 -41 
Q 819 9 494 109 
L 494 744 
Q 775 591 1075 516 
Q 1375 441 1709 441 
Q 2250 441 2565 725 
Q 2881 1009 2881 1497 
Q 2881 1984 2565 2268 
Q 2250 2553 1709 2553 
Q 1456 2553 1204 2497 
Q 953 2441 691 2322 
L 691 4666 
z
" transform="scale(0.015625)"/>
       </defs>
       <use xlink:href="#DejaVuSans-32"/>
       <use xlink:href="#DejaVuSans-30" x="63.623047"/>
       <use xlink:href="#DejaVuSans-31" x="127.246094"/>
       <use xlink:href="#DejaVuSans-39" x="190.869141"/>
       <use xlink:href="#DejaVuSans-2d" x="254.492188"/>
       <use xlink:href="#DejaVuSans-30" x="290.576172"/>
       <use xlink:href="#DejaVuSans-37" x="354.199219"/>
       <use xlink:href="#DejaVuSans-2d" x="417.822266"/>
       <use xlink:href="#DejaVuSans-30" x="453.90625"/>
       <use xlink:href="#DejaVuSans-35" x="517.529297"/>
      </g>
     </g>
    </g>
    <g id="xtick_3">
     <g id="line2d_5">
      <path d="M 322.939277 252.92 
L 322.939277 17.64 
" clip-path="url(#p6de5b11a20)" style="fill: none; stroke: #b0b0b0; stroke-width: 0.8; stroke-linecap: square"/>
     </g>
     <g id="line2d_6">
      <g>
       <use xlink:href="#m6bf21af012" x="322.939277" y="252.92" style="stroke: #000000; stroke-width: 0.8"/>
      </g>
     </g>
     <g id="text_3">
      <!-- 2019-07-09 -->
      <g transform="translate(270.635215 273.597188) scale(0.18 -0.18)">
       <use xlink:href="#DejaVuSans-32"/>
       <use xlink:href="#DejaVuSans-30" x="63.623047"/>
       <use xlink:href="#DejaVuSans-31" x="127.246094"/>
       <use xlink:href="#DejaVuSans-39" x="190.869141"/>
       <use xlink:href="#DejaVuSans-2d" x="254.492188"/>
       <use xlink:href="#DejaVuSans-30" x="290.576172"/>
       <use xlink:href="#DejaVuSans-37" x="354.199219"/>
       <use xlink:href="#DejaVuSans-2d" x="417.822266"/>
       <use xlink:href="#DejaVuSans-30" x="453.90625"/>
       <use xlink:href="#DejaVuSans-39" x="517.529297"/>
      </g>
     </g>
    </g>
    <g id="xtick_4">
     <g id="line2d_7">
      <path d="M 452.841416 252.92 
L 452.841416 17.64 
" clip-path="url(#p6de5b11a20)" style="fill: none; stroke: #b0b0b0; stroke-width: 0.8; stroke-linecap: square"/>
     </g>
     <g id="line2d_8">
      <g>
       <use xlink:href="#m6bf21af012" x="452.841416" y="252.92" style="stroke: #000000; stroke-width: 0.8"/>
      </g>
     </g>
     <g id="text_4">
      <!-- 2019-07-13 -->
      <g transform="translate(400.537353 273.597188) scale(0.18 -0.18)">
       <defs>
        <path id="DejaVuSans-33" d="M 2597 2516 
Q 3050 2419 3304 2112 
Q 3559 1806 3559 1356 
Q 3559 666 3084 287 
Q 2609 -91 1734 -91 
Q 1441 -91 1130 -33 
Q 819 25 488 141 
L 488 750 
Q 750 597 1062 519 
Q 1375 441 1716 441 
Q 2309 441 2620 675 
Q 2931 909 2931 1356 
Q 2931 1769 2642 2001 
Q 2353 2234 1838 2234 
L 1294 2234 
L 1294 2753 
L 1863 2753 
Q 2328 2753 2575 2939 
Q 2822 3125 2822 3475 
Q 2822 3834 2567 4026 
Q 2313 4219 1838 4219 
Q 1578 4219 1281 4162 
Q 984 4106 628 3988 
L 628 4550 
Q 988 4650 1302 4700 
Q 1616 4750 1894 4750 
Q 2613 4750 3031 4423 
Q 3450 4097 3450 3541 
Q 3450 3153 3228 2886 
Q 3006 2619 2597 2516 
z
" transform="scale(0.015625)"/>
       </defs>
       <use xlink:href="#DejaVuSans-32"/>
       <use xlink:href="#DejaVuSans-30" x="63.623047"/>
       <use xlink:href="#DejaVuSans-31" x="127.246094"/>
       <use xlink:href="#DejaVuSans-39" x="190.869141"/>
       <use xlink:href="#DejaVuSans-2d" x="254.492188"/>
       <use xlink:href="#DejaVuSans-30" x="290.576172"/>
       <use xlink:href="#DejaVuSans-37" x="354.199219"/>
       <use xlink:href="#DejaVuSans-2d" x="417.822266"/>
       <use xlink:href="#DejaVuSans-31" x="453.90625"/>
       <use xlink:href="#DejaVuSans-33" x="517.529297"/>
      </g>
     </g>
    </g>
    <g id="xtick_5">
     <g id="line2d_9">
      <path d="M 582.743554 252.92 
L 582.743554 17.64 
" clip-path="url(#p6de5b11a20)" style="fill: none; stroke: #b0b0b0; stroke-width: 0.8; stroke-linecap: square"/>
     </g>
     <g id="line2d_10">
      <g>
       <use xlink:href="#m6bf21af012" x="582.743554" y="252.92" style="stroke: #000000; stroke-width: 0.8"/>
      </g>
     </g>
     <g id="text_5">
      <!-- 2019-07-17 -->
      <g transform="translate(530.439492 273.597188) scale(0.18 -0.18)">
       <use xlink:href="#DejaVuSans-32"/>
       <use xlink:href="#DejaVuSans-30" x="63.623047"/>
       <use xlink:href="#DejaVuSans-31" x="127.246094"/>
       <use xlink:href="#DejaVuSans-39" x="190.869141"/>
       <use xlink:href="#DejaVuSans-2d" x="254.492188"/>
       <use xlink:href="#DejaVuSans-30" x="290.576172"/>
       <use xlink:href="#DejaVuSans-37" x="354.199219"/>
       <use xlink:href="#DejaVuSans-2d" x="417.822266"/>
       <use xlink:href="#DejaVuSans-31" x="453.90625"/>
       <use xlink:href="#DejaVuSans-37" x="517.529297"/>
      </g>
     </g>
    </g>
    <g id="xtick_6">
     <g id="line2d_11">
      <path d="M 712.645693 252.92 
L 712.645693 17.64 
" clip-path="url(#p6de5b11a20)" style="fill: none; stroke: #b0b0b0; stroke-width: 0.8; stroke-linecap: square"/>
     </g>
     <g id="line2d_12">
      <g>
       <use xlink:href="#m6bf21af012" x="712.645693" y="252.92" style="stroke: #000000; stroke-width: 0.8"/>
      </g>
     </g>
     <g id="text_6">
      <!-- 2019-07-21 -->
      <g transform="translate(660.34163 273.597188) scale(0.18 -0.18)">
       <use xlink:href="#DejaVuSans-32"/>
       <use xlink:href="#DejaVuSans-30" x="63.623047"/>
       <use xlink:href="#DejaVuSans-31" x="127.246094"/>
       <use xlink:href="#DejaVuSans-39" x="190.869141"/>
       <use xlink:href="#DejaVuSans-2d" x="254.492188"/>
       <use xlink:href="#DejaVuSans-30" x="290.576172"/>
       <use xlink:href="#DejaVuSans-37" x="354.199219"/>
       <use xlink:href="#DejaVuSans-2d" x="417.822266"/>
       <use xlink:href="#DejaVuSans-32" x="453.90625"/>
       <use xlink:href="#DejaVuSans-31" x="517.529297"/>
      </g>
     </g>
    </g>
    <g id="xtick_7">
     <g id="line2d_13">
      <path d="M 842.547831 252.92 
L 842.547831 17.64 
" clip-path="url(#p6de5b11a20)" style="fill: none; stroke: #b0b0b0; stroke-width: 0.8; stroke-linecap: square"/>
     </g>
     <g id="line2d_14">
      <g>
       <use xlink:href="#m6bf21af012" x="842.547831" y="252.92" style="stroke: #000000; stroke-width: 0.8"/>
      </g>
     </g>
     <g id="text_7">
      <!-- 2019-07-25 -->
      <g transform="translate(790.243769 273.597188) scale(0.18 -0.18)">
       <use xlink:href="#DejaVuSans-32"/>
       <use xlink:href="#DejaVuSans-30" x="63.623047"/>
       <use xlink:href="#DejaVuSans-31" x="127.246094"/>
       <use xlink:href="#DejaVuSans-39" x="190.869141"/>
       <use xlink:href="#DejaVuSans-2d" x="254.492188"/>
       <use xlink:href="#DejaVuSans-30" x="290.576172"/>
       <use xlink:href="#DejaVuSans-37" x="354.199219"/>
       <use xlink:href="#DejaVuSans-2d" x="417.822266"/>
       <use xlink:href="#DejaVuSans-32" x="453.90625"/>
       <use xlink:href="#DejaVuSans-35" x="517.529297"/>
      </g>
     </g>
    </g>
    <g id="xtick_8">
     <g id="line2d_15">
      <path d="M 972.44997 252.92 
L 972.44997 17.64 
" clip-path="url(#p6de5b11a20)" style="fill: none; stroke: #b0b0b0; stroke-width: 0.8; stroke-linecap: square"/>
     </g>
     <g id="line2d_16">
      <g>
       <use xlink:href="#m6bf21af012" x="972.44997" y="252.92" style="stroke: #000000; stroke-width: 0.8"/>
      </g>
     </g>
     <g id="text_8">
      <!-- 2019-07-29 -->
      <g transform="translate(920.145907 273.597188) scale(0.18 -0.18)">
       <use xlink:href="#DejaVuSans-32"/>
       <use xlink:href="#DejaVuSans-30" x="63.623047"/>
       <use xlink:href="#DejaVuSans-31" x="127.246094"/>
       <use xlink:href="#DejaVuSans-39" x="190.869141"/>
       <use xlink:href="#DejaVuSans-2d" x="254.492188"/>
       <use xlink:href="#DejaVuSans-30" x="290.576172"/>
       <use xlink:href="#DejaVuSans-37" x="354.199219"/>
       <use xlink:href="#DejaVuSans-2d" x="417.822266"/>
       <use xlink:href="#DejaVuSans-32" x="453.90625"/>
       <use xlink:href="#DejaVuSans-39" x="517.529297"/>
      </g>
     </g>
    </g>
   </g>
   <g id="matplotlib.axis_2">
    <g id="ytick_1">
     <g id="line2d_17">
      <path d="M 63.135 222.231304 
L 1069.2 222.231304 
" clip-path="url(#p6de5b11a20)" style="fill: none; stroke: #b0b0b0; stroke-width: 0.8; stroke-linecap: square"/>
     </g>
     <g id="line2d_18">
      <defs>
       <path id="md0ad0a78fd" d="M 0 0 
L -3.5 0 
" style="stroke: #000000; stroke-width: 0.8"/>
      </defs>
      <g>
       <use xlink:href="#md0ad0a78fd" x="63.135" y="222.231304" style="stroke: #000000; stroke-width: 0.8"/>
      </g>
     </g>
     <g id="text_9">
      <!-- 10 -->
      <g transform="translate(33.23 229.069898) scale(0.18 -0.18)">
       <use xlink:href="#DejaVuSans-31"/>
       <use xlink:href="#DejaVuSans-30" x="63.623047"/>
      </g>
     </g>
    </g>
    <g id="ytick_2">
     <g id="line2d_19">
      <path d="M 63.135 171.083478 
L 1069.2 171.083478 
" clip-path="url(#p6de5b11a20)" style="fill: none; stroke: #b0b0b0; stroke-width: 0.8; stroke-linecap: square"/>
     </g>
     <g id="line2d_20">
      <g>
       <use xlink:href="#md0ad0a78fd" x="63.135" y="171.083478" style="stroke: #000000; stroke-width: 0.8"/>
      </g>
     </g>
     <g id="text_10">
      <!-- 15 -->
      <g transform="translate(33.23 177.922072) scale(0.18 -0.18)">
       <use xlink:href="#DejaVuSans-31"/>
       <use xlink:href="#DejaVuSans-35" x="63.623047"/>
      </g>
     </g>
    </g>
    <g id="ytick_3">
     <g id="line2d_21">
      <path d="M 63.135 119.935652 
L 1069.2 119.935652 
" clip-path="url(#p6de5b11a20)" style="fill: none; stroke: #b0b0b0; stroke-width: 0.8; stroke-linecap: square"/>
     </g>
     <g id="line2d_22">
      <g>
       <use xlink:href="#md0ad0a78fd" x="63.135" y="119.935652" style="stroke: #000000; stroke-width: 0.8"/>
      </g>
     </g>
     <g id="text_11">
      <!-- 20 -->
      <g transform="translate(33.23 126.774246) scale(0.18 -0.18)">
       <use xlink:href="#DejaVuSans-32"/>
       <use xlink:href="#DejaVuSans-30" x="63.623047"/>
      </g>
     </g>
    </g>
    <g id="ytick_4">
     <g id="line2d_23">
      <path d="M 63.135 68.787826 
L 1069.2 68.787826 
" clip-path="url(#p6de5b11a20)" style="fill: none; stroke: #b0b0b0; stroke-width: 0.8; stroke-linecap: square"/>
     </g>
     <g id="line2d_24">
      <g>
       <use xlink:href="#md0ad0a78fd" x="63.135" y="68.787826" style="stroke: #000000; stroke-width: 0.8"/>
      </g>
     </g>
     <g id="text_12">
      <!-- 25 -->
      <g transform="translate(33.23 75.62642) scale(0.18 -0.18)">
       <use xlink:href="#DejaVuSans-32"/>
       <use xlink:href="#DejaVuSans-35" x="63.623047"/>
      </g>
     </g>
    </g>
    <g id="ytick_5">
     <g id="line2d_25">
      <path d="M 63.135 17.64 
L 1069.2 17.64 
" clip-path="url(#p6de5b11a20)" style="fill: none; stroke: #b0b0b0; stroke-width: 0.8; stroke-linecap: square"/>
     </g>
     <g id="line2d_26">
      <g>
       <use xlink:href="#md0ad0a78fd" x="63.135" y="17.64" style="stroke: #000000; stroke-width: 0.8"/>
      </g>
     </g>
     <g id="text_13">
      <!-- 30 -->
      <g transform="translate(33.23 24.478594) scale(0.18 -0.18)">
       <use xlink:href="#DejaVuSans-33"/>
       <use xlink:href="#DejaVuSans-30" x="63.623047"/>
      </g>
     </g>
    </g>
    <g id="text_14">
     <!-- Temperature (°C) -->
     <g transform="translate(25.486563 212.952812) rotate(-90) scale(0.18 -0.18)">
      <defs>
       <path id="DejaVuSans-54" d="M -19 4666 
L 3928 4666 
L 3928 4134 
L 2272 4134 
L 2272 0 
L 1638 0 
L 1638 4134 
L -19 4134 
L -19 4666 
z
" transform="scale(0.015625)"/>
       <path id="DejaVuSans-65" d="M 3597 1894 
L 3597 1613 
L 953 1613 
Q 991 1019 1311 708 
Q 1631 397 2203 397 
Q 2534 397 2845 478 
Q 3156 559 3463 722 
L 3463 178 
Q 3153 47 2828 -22 
Q 2503 -91 2169 -91 
Q 1331 -91 842 396 
Q 353 884 353 1716 
Q 353 2575 817 3079 
Q 1281 3584 2069 3584 
Q 2775 3584 3186 3129 
Q 3597 2675 3597 1894 
z
M 3022 2063 
Q 3016 2534 2758 2815 
Q 2500 3097 2075 3097 
Q 1594 3097 1305 2825 
Q 1016 2553 972 2059 
L 3022 2063 
z
" transform="scale(0.015625)"/>
       <path id="DejaVuSans-6d" d="M 3328 2828 
Q 3544 3216 3844 3400 
Q 4144 3584 4550 3584 
Q 5097 3584 5394 3201 
Q 5691 2819 5691 2113 
L 5691 0 
L 5113 0 
L 5113 2094 
Q 5113 2597 4934 2840 
Q 4756 3084 4391 3084 
Q 3944 3084 3684 2787 
Q 3425 2491 3425 1978 
L 3425 0 
L 2847 0 
L 2847 2094 
Q 2847 2600 2669 2842 
Q 2491 3084 2119 3084 
Q 1678 3084 1418 2786 
Q 1159 2488 1159 1978 
L 1159 0 
L 581 0 
L 581 3500 
L 1159 3500 
L 1159 2956 
Q 1356 3278 1631 3431 
Q 1906 3584 2284 3584 
Q 2666 3584 2933 3390 
Q 3200 3197 3328 2828 
z
" transform="scale(0.015625)"/>
       <path id="DejaVuSans-70" d="M 1159 525 
L 1159 -1331 
L 581 -1331 
L 581 3500 
L 1159 3500 
L 1159 2969 
Q 1341 3281 1617 3432 
Q 1894 3584 2278 3584 
Q 2916 3584 3314 3078 
Q 3713 2572 3713 1747 
Q 3713 922 3314 415 
Q 2916 -91 2278 -91 
Q 1894 -91 1617 61 
Q 1341 213 1159 525 
z
M 3116 1747 
Q 3116 2381 2855 2742 
Q 2594 3103 2138 3103 
Q 1681 3103 1420 2742 
Q 1159 2381 1159 1747 
Q 1159 1113 1420 752 
Q 1681 391 2138 391 
Q 2594 391 2855 752 
Q 3116 1113 3116 1747 
z
" transform="scale(0.015625)"/>
       <path id="DejaVuSans-72" d="M 2631 2963 
Q 2534 3019 2420 3045 
Q 2306 3072 2169 3072 
Q 1681 3072 1420 2755 
Q 1159 2438 1159 1844 
L 1159 0 
L 581 0 
L 581 3500 
L 1159 3500 
L 1159 2956 
Q 1341 3275 1631 3429 
Q 1922 3584 2338 3584 
Q 2397 3584 2469 3576 
Q 2541 3569 2628 3553 
L 2631 2963 
z
" transform="scale(0.015625)"/>
       <path id="DejaVuSans-61" d="M 2194 1759 
Q 1497 1759 1228 1600 
Q 959 1441 959 1056 
Q 959 750 1161 570 
Q 1363 391 1709 391 
Q 2188 391 2477 730 
Q 2766 1069 2766 1631 
L 2766 1759 
L 2194 1759 
z
M 3341 1997 
L 3341 0 
L 2766 0 
L 2766 531 
Q 2569 213 2275 61 
Q 1981 -91 1556 -91 
Q 1019 -91 701 211 
Q 384 513 384 1019 
Q 384 1609 779 1909 
Q 1175 2209 1959 2209 
L 2766 2209 
L 2766 2266 
Q 2766 2663 2505 2880 
Q 2244 3097 1772 3097 
Q 1472 3097 1187 3025 
Q 903 2953 641 2809 
L 641 3341 
Q 956 3463 1253 3523 
Q 1550 3584 1831 3584 
Q 2591 3584 2966 3190 
Q 3341 2797 3341 1997 
z
" transform="scale(0.015625)"/>
       <path id="DejaVuSans-74" d="M 1172 4494 
L 1172 3500 
L 2356 3500 
L 2356 3053 
L 1172 3053 
L 1172 1153 
Q 1172 725 1289 603 
Q 1406 481 1766 481 
L 2356 481 
L 2356 0 
L 1766 0 
Q 1100 0 847 248 
Q 594 497 594 1153 
L 594 3053 
L 172 3053 
L 172 3500 
L 594 3500 
L 594 4494 
L 1172 4494 
z
" transform="scale(0.015625)"/>
       <path id="DejaVuSans-75" d="M 544 1381 
L 544 3500 
L 1119 3500 
L 1119 1403 
Q 1119 906 1312 657 
Q 1506 409 1894 409 
Q 2359 409 2629 706 
Q 2900 1003 2900 1516 
L 2900 3500 
L 3475 3500 
L 3475 0 
L 2900 0 
L 2900 538 
Q 2691 219 2414 64 
Q 2138 -91 1772 -91 
Q 1169 -91 856 284 
Q 544 659 544 1381 
z
M 1991 3584 
L 1991 3584 
z
" transform="scale(0.015625)"/>
       <path id="DejaVuSans-20" transform="scale(0.015625)"/>
       <path id="DejaVuSans-28" d="M 1984 4856 
Q 1566 4138 1362 3434 
Q 1159 2731 1159 2009 
Q 1159 1288 1364 580 
Q 1569 -128 1984 -844 
L 1484 -844 
Q 1016 -109 783 600 
Q 550 1309 550 2009 
Q 550 2706 781 3412 
Q 1013 4119 1484 4856 
L 1984 4856 
z
" transform="scale(0.015625)"/>
       <path id="DejaVuSans-b0" d="M 1600 4347 
Q 1350 4347 1178 4173 
Q 1006 4000 1006 3750 
Q 1006 3503 1178 3333 
Q 1350 3163 1600 3163 
Q 1850 3163 2022 3333 
Q 2194 3503 2194 3750 
Q 2194 3997 2020 4172 
Q 1847 4347 1600 4347 
z
M 1600 4750 
Q 1800 4750 1984 4673 
Q 2169 4597 2303 4453 
Q 2447 4313 2519 4134 
Q 2591 3956 2591 3750 
Q 2591 3338 2302 3052 
Q 2013 2766 1594 2766 
Q 1172 2766 890 3047 
Q 609 3328 609 3750 
Q 609 4169 896 4459 
Q 1184 4750 1600 4750 
z
" transform="scale(0.015625)"/>
       <path id="DejaVuSans-43" d="M 4122 4306 
L 4122 3641 
Q 3803 3938 3442 4084 
Q 3081 4231 2675 4231 
Q 1875 4231 1450 3742 
Q 1025 3253 1025 2328 
Q 1025 1406 1450 917 
Q 1875 428 2675 428 
Q 3081 428 3442 575 
Q 3803 722 4122 1019 
L 4122 359 
Q 3791 134 3420 21 
Q 3050 -91 2638 -91 
Q 1578 -91 968 557 
Q 359 1206 359 2328 
Q 359 3453 968 4101 
Q 1578 4750 2638 4750 
Q 3056 4750 3426 4639 
Q 3797 4528 4122 4306 
z
" transform="scale(0.015625)"/>
       <path id="DejaVuSans-29" d="M 513 4856 
L 1013 4856 
Q 1481 4119 1714 3412 
Q 1947 2706 1947 2009 
Q 1947 1309 1714 600 
Q 1481 -109 1013 -844 
L 513 -844 
Q 928 -128 1133 580 
Q 1338 1288 1338 2009 
Q 1338 2731 1133 3434 
Q 928 4138 513 4856 
z
" transform="scale(0.015625)"/>
      </defs>
      <use xlink:href="#DejaVuSans-54"/>
      <use xlink:href="#DejaVuSans-65" x="44.083984"/>
      <use xlink:href="#DejaVuSans-6d" x="105.607422"/>
      <use xlink:href="#DejaVuSans-70" x="203.019531"/>
      <use xlink:href="#DejaVuSans-65" x="266.496094"/>
      <use xlink:href="#DejaVuSans-72" x="328.019531"/>
      <use xlink:href="#DejaVuSans-61" x="369.132812"/>
      <use xlink:href="#DejaVuSans-74" x="430.412109"/>
      <use xlink:href="#DejaVuSans-75" x="469.621094"/>
      <use xlink:href="#DejaVuSans-72" x="533"/>
      <use xlink:href="#DejaVuSans-65" x="571.863281"/>
      <use xlink:href="#DejaVuSans-20" x="633.386719"/>
      <use xlink:href="#DejaVuSans-28" x="665.173828"/>
      <use xlink:href="#DejaVuSans-b0" x="704.1875"/>
      <use xlink:href="#DejaVuSans-43" x="754.1875"/>
      <use xlink:href="#DejaVuSans-29" x="824.011719"/>
     </g>
    </g>
   </g>
   <g id="line2d_27">
    <path d="M 63.135 214.702344 
L 63.811574 216.195861 
L 64.488147 215.950351 
L 65.164721 215.203593 
L 65.841295 215.950351 
L 66.517868 215.950351 
L 67.194442 212.953089 
L 67.871015 211.950591 
L 68.547589 213.945357 
L 69.224163 214.947854 
L 69.900736 216.195861 
L 70.57731 216.4516 
L 71.253884 216.4516 
L 71.930457 212.953089 
L 73.283605 209.464807 
L 73.960178 203.99199 
L 74.636752 152.946459 
L 75.313325 148.813715 
L 75.989899 137.86808 
L 76.666473 123.50577 
L 77.343046 147.105377 
L 78.01962 204.493238 
L 78.696194 204.493238 
L 79.372767 208.963558 
L 80.049341 210.457075 
L 80.725915 212.953089 
L 82.079062 214.446605 
L 82.755636 212.953089 
L 83.432209 213.699847 
L 84.108783 213.945357 
L 84.785356 213.454337 
L 85.46193 213.454337 
L 86.138504 204.738748 
L 86.815077 202.007454 
L 87.491651 197.301854 
L 88.168225 200.268428 
L 88.844798 202.498473 
L 89.521372 203.99199 
L 90.197946 204.738748 
L 90.874519 203.490741 
L 91.551093 203.99199 
L 92.227666 203.490741 
L 92.90424 202.007454 
L 93.580814 202.252963 
L 94.257387 202.252963 
L 95.610535 214.446605 
L 96.963682 217.454097 
L 97.640256 218.200856 
L 98.316829 218.456595 
L 98.993403 218.200856 
L 100.34655 218.200856 
L 101.023124 218.702104 
L 101.699697 218.200856 
L 102.376271 218.200856 
L 103.052845 218.957843 
L 103.729418 218.200856 
L 104.405992 217.198358 
L 105.082566 213.454337 
L 105.759139 206.723283 
L 106.435713 202.498473 
L 107.112286 194.836529 
L 107.78886 179.082998 
L 108.465434 157.089433 
L 109.142007 157.334943 
L 109.818581 157.334943 
L 110.495155 166.848438 
L 111.171728 200.268428 
L 111.848302 205.485506 
L 112.524876 206.222035 
L 113.201449 211.705082 
L 113.878023 215.203593 
L 114.554597 215.950351 
L 115.23117 215.950351 
L 115.907744 216.952849 
L 117.260891 216.4516 
L 117.937465 216.69711 
L 118.614038 217.955346 
L 119.290612 216.952849 
L 119.967186 219.459092 
L 120.643759 218.200856 
L 121.320333 212.20633 
L 121.996907 212.45184 
L 122.67348 212.20633 
L 123.350054 212.20633 
L 124.026627 201.260696 
L 124.703201 197.792873 
L 125.379775 211.950591 
L 126.056348 210.457075 
L 126.732922 209.464807 
L 128.086069 208.963558 
L 128.762643 214.702344 
L 129.439217 218.957843 
L 130.11579 219.704602 
L 131.468937 220.707099 
L 132.822085 221.208348 
L 134.175232 221.208348 
L 134.851806 221.464087 
L 135.528379 221.464087 
L 136.204953 221.709597 
L 136.881527 219.459092 
L 137.5581 219.203353 
L 138.234674 218.200856 
L 138.911247 208.718049 
L 139.587821 141.509805 
L 140.264395 105.716557 
L 140.940968 106.698595 
L 141.617542 97.901169 
L 142.294116 111.087078 
L 142.970689 120.344835 
L 143.647263 114.258243 
L 144.323837 126.912216 
L 145.00041 202.007454 
L 145.676984 205.976525 
L 146.353557 211.459572 
L 147.030131 215.449103 
L 147.706705 216.952849 
L 148.383278 216.69711 
L 149.059852 217.699607 
L 149.736426 217.955346 
L 151.089573 219.459092 
L 151.766147 219.704602 
L 152.44272 221.464087 
L 153.119294 219.960341 
L 153.795868 220.707099 
L 154.472441 215.203593 
L 155.149015 213.454337 
L 155.825588 209.955826 
L 156.502162 208.718049 
L 157.178736 201.015186 
L 157.855309 200.022918 
L 158.531883 198.539631 
L 159.208457 209.209068 
L 159.88503 209.710317 
L 160.561604 210.457075 
L 161.238178 210.958323 
L 161.914751 216.4516 
L 162.591325 219.704602 
L 163.267898 220.46159 
L 164.621046 220.962838 
L 165.297619 222.466584 
L 165.974193 222.722323 
L 166.650767 222.466584 
L 167.32734 222.466584 
L 168.003914 223.469082 
L 169.357061 223.469082 
L 170.710208 222.967833 
L 171.386782 221.965336 
L 172.063356 160.260598 
L 172.739929 114.749263 
L 173.416503 109.378741 
L 174.093077 102.299882 
L 174.76965 69.86193 
L 175.446224 60.430271 
L 176.122798 59.929023 
L 177.475945 21.834122 
L 178.152518 164.168292 
L 178.829092 200.524167 
L 179.505666 209.955826 
L 180.182239 214.702344 
L 180.858813 217.198358 
L 182.21196 219.704602 
L 182.888534 219.203353 
L 183.565108 220.46159 
L 184.241681 220.962838 
L 184.918255 222.221075 
L 185.594829 222.967833 
L 186.271402 223.469082 
L 187.624549 222.967833 
L 188.301123 220.20585 
L 188.977697 218.456595 
L 189.65427 218.456595 
L 190.330844 212.953089 
L 191.007418 212.953089 
L 191.683991 214.947854 
L 192.360565 213.198598 
L 193.037139 217.955346 
L 193.713712 217.198358 
L 194.390286 216.69711 
L 195.066859 216.4516 
L 195.743433 216.4516 
L 196.420007 221.208348 
L 197.09658 221.965336 
L 197.773154 222.221075 
L 198.449728 222.967833 
L 199.126301 223.98056 
L 199.802875 223.98056 
L 200.479449 223.724821 
L 201.156022 223.98056 
L 201.832596 224.983057 
L 203.862317 224.22607 
L 204.53889 222.967833 
L 205.215464 211.203833 
L 205.892038 181.292584 
L 206.568611 179.819527 
L 207.245185 164.894591 
L 207.921759 162.705464 
L 208.598332 155.872115 
L 209.274906 150.757332 
L 209.951479 142.481614 
L 210.628053 136.159743 
L 211.304627 117.183899 
L 211.9812 202.999722 
L 212.657774 211.950591 
L 214.010921 217.955346 
L 215.364069 221.464087 
L 216.040642 221.965336 
L 216.717216 222.722323 
L 217.39379 222.722323 
L 218.070363 223.724821 
L 218.746937 223.98056 
L 219.42351 224.727318 
L 220.100084 224.727318 
L 220.776658 221.464087 
L 221.453231 219.960341 
L 222.129805 219.704602 
L 222.806379 219.203353 
L 223.482952 218.957843 
L 224.159526 217.454097 
L 224.8361 218.957843 
L 226.189247 220.962838 
L 226.86582 219.960341 
L 227.542394 219.459092 
L 228.218968 219.203353 
L 228.895541 218.702104 
L 229.572115 220.962838 
L 230.248689 223.98056 
L 231.601836 224.481809 
L 232.27841 224.983057 
L 232.954983 225.740045 
L 233.631557 225.995784 
L 234.30813 224.983057 
L 234.984704 226.241294 
L 235.661278 226.497033 
L 237.690999 225.740045 
L 238.367572 222.967833 
L 239.044146 197.056344 
L 239.72072 180.065037 
L 240.397293 157.580452 
L 241.073867 130.318661 
L 241.75044 124.968598 
L 242.427014 111.823607 
L 243.103588 116.44737 
L 243.780161 85.891659 
L 244.456735 68.869663 
L 245.133309 187.686063 
L 245.809882 205.485506 
L 246.486456 200.524167 
L 247.16303 193.353242 
L 247.839603 190.141158 
L 248.516177 201.260696 
L 249.192751 214.947854 
L 249.869324 217.955346 
L 251.222471 221.965336 
L 251.899045 221.965336 
L 252.575619 219.704602 
L 253.252192 221.208348 
L 253.928766 220.962838 
L 254.60534 221.208348 
L 255.281913 221.208348 
L 255.958487 220.46159 
L 256.635061 218.957843 
L 257.311634 219.459092 
L 257.988208 218.702104 
L 258.664781 220.46159 
L 259.341355 220.962838 
L 260.017929 218.200856 
L 260.694502 217.699607 
L 261.371076 216.952849 
L 262.04765 217.454097 
L 262.724223 218.957843 
L 263.400797 222.466584 
L 264.077371 223.469082 
L 264.753944 223.98056 
L 265.430518 225.238797 
L 266.107091 225.995784 
L 266.783665 226.241294 
L 267.460239 226.241294 
L 268.136812 225.995784 
L 269.48996 226.497033 
L 270.843107 226.497033 
L 271.519681 225.484306 
L 272.196254 219.203353 
L 272.872828 185.711757 
L 274.225975 97.16464 
L 274.902549 87.855736 
L 275.579122 97.655659 
L 276.255696 84.664111 
L 276.93227 80.971238 
L 277.608843 67.386376 
L 278.285417 180.556056 
L 278.961991 201.015186 
L 279.638564 209.710317 
L 280.991711 201.260696 
L 281.668285 191.624445 
L 282.344859 194.836529 
L 283.021432 213.699847 
L 283.698006 220.46159 
L 284.37458 222.466584 
L 285.051153 223.223572 
L 285.727727 224.481809 
L 286.404301 224.481809 
L 287.080874 223.724821 
L 287.757448 213.945357 
L 288.434022 217.955346 
L 289.110595 219.704602 
L 289.787169 218.957843 
L 290.463742 218.957843 
L 291.140316 220.20585 
L 291.81689 218.200856 
L 292.493463 216.952849 
L 293.170037 219.459092 
L 293.846611 221.464087 
L 295.199758 220.46159 
L 295.876332 219.203353 
L 296.552905 218.702104 
L 297.229479 222.221075 
L 297.906052 224.727318 
L 298.582626 225.740045 
L 299.2592 225.995784 
L 299.935773 226.752772 
L 300.612347 226.497033 
L 301.288921 226.998282 
L 301.965494 226.752772 
L 302.642068 225.995784 
L 303.318642 225.740045 
L 303.995215 225.238797 
L 304.671789 226.241294 
L 305.348362 225.995784 
L 306.024936 220.46159 
L 306.70151 211.459572 
L 307.378083 117.910198 
L 308.731231 55.448473 
L 309.407804 66.394108 
L 310.084378 60.430271 
L 310.760952 71.590727 
L 311.437525 184.975228 
L 313.467246 215.203593 
L 314.820393 185.466247 
L 315.496967 187.931572 
L 316.173541 199.03065 
L 316.850114 215.704842 
L 317.526688 219.960341 
L 318.203262 221.965336 
L 318.879835 222.722323 
L 319.556409 223.98056 
L 320.232983 224.22607 
L 320.909556 222.722323 
L 321.58613 223.98056 
L 322.262703 218.957843 
L 322.939277 220.46159 
L 323.615851 218.200856 
L 324.292424 217.955346 
L 324.968998 218.957843 
L 326.322145 219.459092 
L 326.998719 218.957843 
L 327.675293 219.203353 
L 328.351866 217.198358 
L 329.02844 215.704842 
L 330.381587 215.203593 
L 331.058161 217.454097 
L 331.734734 222.221075 
L 332.411308 223.469082 
L 333.087882 223.98056 
L 333.764455 224.22607 
L 334.441029 225.238797 
L 335.117603 225.484306 
L 335.794176 224.983057 
L 336.47075 224.727318 
L 337.823897 224.727318 
L 338.500471 225.238797 
L 339.177044 224.727318 
L 339.853618 222.722323 
L 340.530192 220.20585 
L 341.206765 215.950351 
L 341.883339 161.723426 
L 342.559913 143.453423 
L 343.236486 160.015089 
L 343.91306 155.145816 
L 344.589633 203.99199 
L 345.266207 202.252963 
L 345.942781 208.718049 
L 347.295928 211.705082 
L 347.972502 219.960341 
L 348.649075 223.724821 
L 349.325649 224.481809 
L 350.002223 223.724821 
L 350.678796 223.724821 
L 351.35537 224.481809 
L 352.031944 224.983057 
L 353.385091 224.983057 
L 354.061664 225.740045 
L 354.738238 225.484306 
L 355.414812 225.740045 
L 356.091385 225.740045 
L 356.767959 226.241294 
L 357.444533 221.709597 
L 358.121106 219.704602 
L 358.79768 220.46159 
L 359.474254 219.459092 
L 360.150827 212.953089 
L 360.827401 216.4516 
L 361.503974 215.950351 
L 362.180548 212.20633 
L 362.857122 211.950591 
L 364.210269 212.953089 
L 364.886843 215.950351 
L 365.563416 221.709597 
L 366.23999 223.724821 
L 366.916564 224.481809 
L 367.593137 224.727318 
L 370.976005 223.469082 
L 371.652579 223.469082 
L 372.329153 222.967833 
L 373.005726 222.967833 
L 373.6823 222.221075 
L 374.358874 220.707099 
L 375.035447 220.20585 
L 375.712021 219.459092 
L 376.388594 217.198358 
L 377.065168 210.702584 
L 377.741742 206.477774 
L 378.418315 207.470042 
L 379.771463 212.45184 
L 380.448036 213.198598 
L 381.12461 212.953089 
L 381.801184 214.947854 
L 382.477757 220.46159 
L 383.154331 223.469082 
L 383.830905 223.98056 
L 384.507478 222.967833 
L 385.184052 222.466584 
L 385.860625 222.967833 
L 387.213773 221.464087 
L 389.243494 215.950351 
L 389.920067 216.69711 
L 390.596641 215.950351 
L 391.273215 214.947854 
L 393.302935 215.704842 
L 393.979509 219.960341 
L 394.656083 220.707099 
L 395.332656 219.704602 
L 396.00923 215.203593 
L 396.685804 215.203593 
L 397.362377 215.449103 
L 398.038951 215.950351 
L 398.715525 217.198358 
L 399.392098 217.699607 
L 400.068672 220.20585 
L 400.745245 220.20585 
L 401.421819 219.960341 
L 402.098393 219.203353 
L 402.774966 217.699607 
L 403.45154 217.955346 
L 404.804687 217.454097 
L 405.481261 216.952849 
L 406.157835 217.198358 
L 406.834408 217.198358 
L 407.510982 218.200856 
L 408.187555 216.952849 
L 408.864129 217.699607 
L 409.540703 215.203593 
L 410.89385 211.459572 
L 411.570424 208.718049 
L 412.246997 205.229767 
L 412.923571 203.490741 
L 413.600145 203.245231 
L 414.953292 214.702344 
L 415.629866 216.4516 
L 416.306439 217.198358 
L 417.659586 217.699607 
L 418.33616 216.952849 
L 419.012734 216.952849 
L 419.689307 217.454097 
L 420.365881 217.198358 
L 421.042455 217.198358 
L 421.719028 215.950351 
L 422.395602 214.947854 
L 423.072176 214.446605 
L 423.748749 214.446605 
L 424.425323 213.945357 
L 425.101896 213.699847 
L 426.455044 214.201096 
L 427.131617 217.955346 
L 427.808191 217.198358 
L 428.484765 218.702104 
L 429.161338 216.952849 
L 429.837912 212.953089 
L 430.514486 213.454337 
L 431.191059 212.953089 
L 431.867633 212.20633 
L 432.544206 211.203833 
L 433.22078 213.945357 
L 433.897354 214.446605 
L 434.573927 214.446605 
L 435.250501 215.449103 
L 435.927075 215.449103 
L 436.603648 215.704842 
L 437.956796 215.704842 
L 438.633369 214.702344 
L 439.986516 210.958323 
L 440.66309 213.454337 
L 441.339664 209.209068 
L 442.016237 205.976525 
L 442.692811 203.74648 
L 443.369385 203.245231 
L 444.045958 203.245231 
L 444.722532 203.99199 
L 445.399106 202.498473 
L 446.075679 202.252963 
L 446.752253 201.761944 
L 447.428826 205.731016 
L 448.1054 211.705082 
L 448.781974 213.699847 
L 449.458547 213.198598 
L 450.135121 211.203833 
L 450.811695 211.950591 
L 451.488268 214.947854 
L 452.164842 214.446605 
L 452.841416 216.4516 
L 453.517989 214.201096 
L 454.194563 216.4516 
L 454.871137 216.952849 
L 455.54771 217.198358 
L 456.900857 207.470042 
L 457.577431 207.224532 
L 458.254005 207.470042 
L 458.930578 206.723283 
L 459.607152 207.470042 
L 460.283726 209.209068 
L 460.960299 210.457075 
L 461.636873 208.718049 
L 462.313447 204.738748 
L 462.99002 199.531899 
L 463.666594 197.301854 
L 464.343167 195.573057 
L 465.019741 208.718049 
L 465.696315 211.203833 
L 466.372888 211.950591 
L 467.049462 212.20633 
L 468.402609 216.69711 
L 469.079183 215.950351 
L 469.755757 215.704842 
L 470.43233 216.195861 
L 471.108904 216.952849 
L 471.785477 216.69711 
L 472.462051 216.195861 
L 473.815198 215.704842 
L 474.491772 217.454097 
L 475.844919 207.715551 
L 476.521493 206.723283 
L 477.198067 206.222035 
L 477.87464 205.976525 
L 478.551214 207.470042 
L 479.227787 204.984257 
L 479.904361 206.477774 
L 480.580935 212.953089 
L 481.257508 213.454337 
L 481.934082 211.950591 
L 482.610656 212.69735 
L 483.963803 213.198598 
L 484.640377 217.699607 
L 485.31695 219.203353 
L 485.993524 219.704602 
L 489.376392 219.704602 
L 490.052966 219.960341 
L 491.406113 219.960341 
L 492.082687 218.200856 
L 492.75926 217.454097 
L 493.435834 217.198358 
L 494.112408 213.699847 
L 494.788981 211.705082 
L 495.465555 209.209068 
L 496.142128 207.470042 
L 496.818702 203.490741 
L 497.495276 202.007454 
L 498.171849 199.03065 
L 498.848423 214.446605 
L 500.20157 215.449103 
L 500.878144 216.4516 
L 501.554718 217.198358 
L 502.231291 217.454097 
L 503.584438 218.456595 
L 504.261012 219.203353 
L 504.937586 218.702104 
L 506.290733 219.203353 
L 506.967307 219.704602 
L 507.64388 219.960341 
L 508.320454 219.459092 
L 508.997028 217.955346 
L 509.673601 213.198598 
L 510.350175 212.45184 
L 511.026748 211.950591 
L 511.703322 212.45184 
L 512.379896 214.201096 
L 513.056469 213.454337 
L 513.733043 212.45184 
L 514.409617 212.20633 
L 515.08619 212.953089 
L 515.762764 212.69735 
L 516.439338 213.198598 
L 517.115911 215.449103 
L 517.792485 219.459092 
L 518.469059 220.46159 
L 519.145632 220.707099 
L 520.498779 220.707099 
L 521.175353 220.46159 
L 521.851927 220.707099 
L 523.205074 220.707099 
L 523.881648 220.962838 
L 524.558221 220.707099 
L 525.234795 220.707099 
L 525.911369 219.203353 
L 526.587942 219.203353 
L 527.264516 205.976525 
L 527.941089 204.738748 
L 528.617663 198.539631 
L 529.294237 195.573057 
L 529.97081 200.524167 
L 530.647384 194.836529 
L 531.323958 197.547363 
L 532.000531 198.048612 
L 532.677105 215.449103 
L 533.353679 215.704842 
L 534.030252 215.704842 
L 534.706826 217.955346 
L 535.383399 218.957843 
L 536.059973 219.459092 
L 536.736547 219.704602 
L 538.089694 219.704602 
L 538.766268 219.459092 
L 539.442841 219.960341 
L 540.119415 220.20585 
L 540.795989 220.20585 
L 541.472562 220.46159 
L 542.149136 220.46159 
L 542.825709 220.707099 
L 543.502283 215.950351 
L 544.178857 213.945357 
L 546.208578 213.198598 
L 546.885151 213.198598 
L 547.561725 213.454337 
L 548.238299 214.201096 
L 548.914872 214.702344 
L 549.591446 214.702344 
L 550.26802 216.952849 
L 550.944593 219.704602 
L 551.621167 220.707099 
L 552.974314 221.709597 
L 554.327461 221.709597 
L 555.004035 221.464087 
L 555.680609 221.464087 
L 557.033756 221.965336 
L 559.063477 221.965336 
L 559.74005 219.704602 
L 561.093198 210.457075 
L 561.769771 207.97129 
L 562.446345 206.723283 
L 563.122919 200.022918 
L 563.799492 198.539631 
L 564.476066 179.819527 
L 565.15264 171.492661 
L 565.829213 207.224532 
L 566.505787 212.69735 
L 567.18236 213.454337 
L 567.858934 217.699607 
L 568.535508 218.200856 
L 569.212081 218.957843 
L 569.888655 219.203353 
L 570.565229 219.203353 
L 571.918376 218.702104 
L 572.59495 218.957843 
L 573.271523 219.704602 
L 573.948097 219.960341 
L 574.62467 219.960341 
L 575.301244 217.454097 
L 575.977818 215.950351 
L 578.007539 215.950351 
L 578.684112 216.195861 
L 580.03726 215.704842 
L 580.713833 215.950351 
L 581.390407 216.952849 
L 582.06698 216.4516 
L 583.420128 216.952849 
L 584.096701 217.699607 
L 584.773275 220.20585 
L 585.449849 220.962838 
L 586.126422 221.208348 
L 586.802996 221.709597 
L 587.47957 221.965336 
L 588.156143 221.709597 
L 589.509291 221.709597 
L 590.185864 221.965336 
L 591.539011 221.965336 
L 592.215585 221.464087 
L 592.892159 220.46159 
L 593.568732 216.69711 
L 594.245306 187.931572 
L 594.92188 140.057207 
L 595.598453 111.823607 
L 596.275027 135.187934 
L 598.304748 55.448473 
L 598.981321 195.573057 
L 599.657895 205.976525 
L 600.334469 210.211565 
L 601.687616 217.198358 
L 602.36419 217.699607 
L 603.040763 217.955346 
L 605.070484 217.955346 
L 605.747058 218.200856 
L 606.423631 218.702104 
L 607.100205 218.456595 
L 608.453352 218.957843 
L 609.129926 218.957843 
L 609.8065 210.457075 
L 610.483073 208.46231 
L 611.159647 209.464807 
L 611.836221 209.710317 
L 612.512794 209.710317 
L 613.189368 209.955826 
L 614.542515 210.958323 
L 615.219089 212.20633 
L 615.895662 212.953089 
L 616.572236 213.198598 
L 617.24881 215.704842 
L 617.925383 218.957843 
L 618.601957 219.459092 
L 619.278531 220.20585 
L 619.955104 220.46159 
L 620.631678 220.46159 
L 621.308252 220.20585 
L 621.984825 220.46159 
L 622.661399 219.960341 
L 623.337972 220.20585 
L 624.014546 220.20585 
L 624.69112 220.46159 
L 626.044267 220.46159 
L 626.720841 218.702104 
L 627.397414 143.453423 
L 628.073988 104.499238 
L 628.750562 91.773659 
L 629.427135 103.76271 
L 630.103709 99.609506 
L 630.780282 73.575263 
L 631.456856 71.345217 
L 632.13343 199.03065 
L 632.810003 204.237499 
L 633.486577 204.237499 
L 634.163151 212.20633 
L 634.839724 215.203593 
L 635.516298 216.69711 
L 636.192872 216.952849 
L 636.869445 216.4516 
L 637.546019 216.69711 
L 638.222592 216.69711 
L 639.57574 217.699607 
L 640.252313 217.955346 
L 640.928887 217.198358 
L 642.282034 219.704602 
L 642.958608 215.704842 
L 643.635182 214.702344 
L 644.311755 214.702344 
L 644.988329 214.446605 
L 647.01805 214.446605 
L 647.694623 214.201096 
L 648.371197 213.454337 
L 649.047771 213.198598 
L 649.724344 213.198598 
L 650.400918 212.953089 
L 651.077492 218.200856 
L 651.754065 219.203353 
L 652.430639 219.704602 
L 653.107213 219.960341 
L 653.783786 219.960341 
L 654.46036 220.20585 
L 655.136933 219.960341 
L 656.490081 219.960341 
L 657.166654 219.704602 
L 657.843228 219.704602 
L 658.519802 219.960341 
L 659.196375 219.203353 
L 659.872949 217.955346 
L 661.226096 115.966581 
L 661.90267 81.707767 
L 662.579243 73.575263 
L 663.932391 74.557301 
L 664.608964 62.916056 
L 665.285538 200.022918 
L 665.962112 202.498473 
L 666.638685 204.237499 
L 667.315259 210.702584 
L 667.991833 213.198598 
L 669.34498 216.4516 
L 670.021553 216.4516 
L 670.698127 216.195861 
L 671.374701 215.449103 
L 672.051274 214.947854 
L 672.727848 213.699847 
L 673.404422 213.198598 
L 674.080995 213.198598 
L 674.757569 213.699847 
L 675.434143 212.953089 
L 676.110716 211.705082 
L 676.78729 209.955826 
L 677.463863 209.464807 
L 678.140437 209.955826 
L 678.817011 209.955826 
L 680.170158 210.457075 
L 680.846732 209.955826 
L 681.523305 210.211565 
L 682.199879 209.955826 
L 682.876453 209.464807 
L 683.553026 209.710317 
L 684.2296 215.950351 
L 684.906174 217.955346 
L 685.582747 218.702104 
L 686.259321 218.957843 
L 687.612468 218.957843 
L 688.289042 218.456595 
L 688.965615 218.200856 
L 690.318763 218.200856 
L 690.995336 217.955346 
L 691.67191 217.198358 
L 692.348484 214.446605 
L 693.025057 214.446605 
L 693.701631 195.573057 
L 694.378204 180.801565 
L 695.054778 174.183037 
L 695.731352 170.029833 
L 696.407925 160.015089 
L 697.084499 160.506108 
L 697.761073 154.654797 
L 698.437646 203.99199 
L 699.11422 207.715551 
L 699.790794 207.97129 
L 700.467367 210.457075 
L 701.143941 215.203593 
L 701.820514 215.950351 
L 702.497088 217.454097 
L 703.173662 217.955346 
L 703.850235 217.699607 
L 704.526809 217.699607 
L 705.203383 216.952849 
L 706.55653 216.952849 
L 707.233104 217.454097 
L 707.909677 217.454097 
L 708.586251 219.203353 
L 709.262824 219.704602 
L 709.939398 218.200856 
L 710.615972 216.195861 
L 711.292545 215.449103 
L 711.969119 215.704842 
L 712.645693 215.449103 
L 713.322266 214.446605 
L 713.99884 213.699847 
L 714.675414 214.446605 
L 715.351987 214.201096 
L 716.705134 214.201096 
L 717.381708 214.947854 
L 718.058282 217.699607 
L 718.734855 218.957843 
L 719.411429 219.704602 
L 721.44115 219.704602 
L 722.117724 219.203353 
L 722.794297 219.203353 
L 723.470871 219.459092 
L 724.147445 219.459092 
L 724.824018 218.957843 
L 725.500592 218.702104 
L 726.177165 215.704842 
L 726.853739 191.133426 
L 727.530313 145.652779 
L 728.206886 127.648744 
L 728.88346 115.475562 
L 729.560034 81.216748 
L 730.236607 77.523875 
L 730.913181 110.596059 
L 731.589755 196.810835 
L 732.266328 199.28639 
L 732.942902 203.245231 
L 733.619475 206.477774 
L 734.296049 212.953089 
L 734.972623 214.446605 
L 735.649196 214.947854 
L 736.32577 215.950351 
L 737.002344 216.195861 
L 737.678917 216.195861 
L 738.355491 216.4516 
L 739.032065 216.195861 
L 740.385212 216.69711 
L 741.061785 216.69711 
L 741.738359 216.952849 
L 742.414933 216.195861 
L 743.091506 209.209068 
L 743.76808 208.2168 
L 744.444654 208.963558 
L 745.121227 209.955826 
L 745.797801 210.702584 
L 747.150948 211.203833 
L 747.827522 211.705082 
L 748.504095 212.45184 
L 749.180669 212.953089 
L 749.857243 212.953089 
L 750.533816 212.69735 
L 751.21039 212.953089 
L 751.886964 216.69711 
L 752.563537 217.955346 
L 753.240111 218.456595 
L 753.916685 218.702104 
L 755.269832 218.702104 
L 758.6527 217.454097 
L 759.329274 216.195861 
L 760.005847 211.950591 
L 760.682421 166.367649 
L 761.358995 139.075169 
L 762.035568 95.701812 
L 762.712142 75.04832 
L 763.388716 76.286097 
L 764.065289 194.58079 
L 764.741863 195.573057 
L 765.418436 195.818567 
L 766.09501 198.048612 
L 766.771584 201.260696 
L 767.448157 210.457075 
L 768.124731 213.454337 
L 768.801305 214.446605 
L 769.477878 215.950351 
L 770.154452 215.950351 
L 770.831026 216.195861 
L 772.184173 216.195861 
L 773.53732 216.69711 
L 774.890467 216.69711 
L 775.567041 217.454097 
L 776.243615 218.456595 
L 776.920188 218.456595 
L 777.596762 218.200856 
L 778.273336 217.198358 
L 778.949909 215.950351 
L 779.626483 213.454337 
L 780.303056 212.45184 
L 780.97963 213.198598 
L 781.656204 212.20633 
L 782.332777 210.958323 
L 783.009351 210.702584 
L 783.685925 210.211565 
L 784.362498 211.203833 
L 785.039072 214.947854 
L 786.392219 217.699607 
L 787.068793 217.955346 
L 787.745367 217.955346 
L 789.098514 217.454097 
L 789.775087 216.952849 
L 790.451661 216.69711 
L 791.128235 216.952849 
L 792.481382 216.4516 
L 793.157956 210.457075 
L 793.834529 202.498473 
L 794.511103 198.048612 
L 795.187677 196.565325 
L 795.86425 196.810835 
L 796.540824 196.565325 
L 797.217397 199.531899 
L 797.893971 203.245231 
L 798.570545 205.731016 
L 799.247118 205.485506 
L 799.923692 205.485506 
L 800.600266 209.955826 
L 801.276839 212.69735 
L 801.953413 214.446605 
L 802.629987 215.449103 
L 803.30656 216.195861 
L 803.983134 216.195861 
L 804.659707 215.950351 
L 806.012855 215.950351 
L 808.042576 211.203833 
L 808.719149 210.958323 
L 809.395723 213.699847 
L 810.072297 214.446605 
L 810.74887 213.945357 
L 811.425444 209.955826 
L 812.102017 210.457075 
L 812.778591 210.457075 
L 813.455165 209.955826 
L 814.808312 210.958323 
L 816.161459 210.958323 
L 816.838033 210.702584 
L 817.514607 210.702584 
L 818.19118 210.211565 
L 819.544328 215.704842 
L 820.220901 217.198358 
L 821.574048 217.699607 
L 822.250622 217.454097 
L 822.927196 216.952849 
L 824.280343 216.952849 
L 824.956917 216.69711 
L 825.63349 215.704842 
L 826.310064 214.446605 
L 826.986638 211.705082 
L 827.663211 210.457075 
L 828.339785 208.718049 
L 829.016358 207.715551 
L 829.692932 204.237499 
L 830.369506 203.490741 
L 831.046079 202.252963 
L 831.722653 200.524167 
L 832.399227 202.498473 
L 833.0758 203.490741 
L 833.752374 203.74648 
L 834.428948 206.477774 
L 835.105521 212.45184 
L 835.782095 214.446605 
L 836.458668 215.704842 
L 837.135242 216.4516 
L 838.488389 216.4516 
L 839.164963 216.195861 
L 839.841537 215.704842 
L 840.51811 215.950351 
L 841.194684 215.449103 
L 842.547831 213.454337 
L 843.900978 212.953089 
L 844.577552 213.198598 
L 845.254126 211.950591 
L 846.607273 212.953089 
L 847.283847 212.953089 
L 847.96042 213.198598 
L 848.636994 212.45184 
L 849.313568 212.45184 
L 849.990141 211.705082 
L 850.666715 211.459572 
L 851.343289 210.457075 
L 852.019862 210.457075 
L 852.696436 214.446605 
L 853.373009 215.950351 
L 854.049583 216.69711 
L 854.726157 217.198358 
L 856.079304 217.198358 
L 859.462172 214.702344 
L 860.138746 213.945357 
L 860.815319 213.454337 
L 861.491893 211.203833 
L 862.168467 208.2168 
L 863.521614 206.723283 
L 864.198188 207.715551 
L 864.874761 200.524167 
L 865.551335 197.056344 
L 866.904482 197.547363 
L 867.581056 197.056344 
L 868.257629 203.74648 
L 868.934203 208.718049 
L 869.610777 211.705082 
L 870.28735 212.953089 
L 870.963924 213.699847 
L 871.640498 214.201096 
L 872.993645 214.201096 
L 873.670219 213.699847 
L 874.346792 213.699847 
L 875.023366 210.702584 
L 875.699939 209.464807 
L 876.376513 208.718049 
L 877.053087 206.723283 
L 877.72966 205.731016 
L 878.406234 205.976525 
L 879.759381 206.968793 
L 880.435955 207.97129 
L 881.112529 208.2168 
L 881.789102 207.470042 
L 882.465676 207.224532 
L 883.142249 206.477774 
L 883.818823 204.984257 
L 884.495397 204.493238 
L 885.17197 204.237499 
L 886.525118 211.705082 
L 887.201691 213.198598 
L 887.878265 214.201096 
L 888.554839 214.947854 
L 889.907986 214.947854 
L 890.58456 214.446605 
L 892.61428 213.699847 
L 893.290854 213.198598 
L 893.967428 212.953089 
L 894.644001 212.20633 
L 895.997149 212.20633 
L 896.673722 211.950591 
L 897.350296 211.950591 
L 898.703443 212.45184 
L 899.380017 207.224532 
L 900.05659 203.99199 
L 900.733164 202.754212 
L 901.409738 204.493238 
L 902.086311 204.493238 
L 902.762885 206.968793 
L 903.439459 211.203833 
L 904.116032 213.945357 
L 904.792606 213.945357 
L 905.46918 214.446605 
L 906.145753 214.702344 
L 906.822327 214.702344 
L 910.205195 213.454337 
L 910.881769 213.454337 
L 912.234916 206.968793 
L 912.91149 206.222035 
L 913.588063 206.723283 
L 914.264637 206.723283 
L 914.94121 205.229767 
L 915.617784 204.738748 
L 916.294358 204.984257 
L 916.970931 204.738748 
L 917.647505 205.485506 
L 918.324079 205.229767 
L 919.000652 207.97129 
L 920.3538 210.702584 
L 921.030373 213.198598 
L 921.706947 213.945357 
L 924.413241 213.945357 
L 925.089815 213.699847 
L 925.766389 213.699847 
L 926.442962 213.454337 
L 927.119536 212.953089 
L 927.79611 210.702584 
L 928.472683 207.715551 
L 929.149257 207.470042 
L 929.825831 207.97129 
L 931.178978 206.477774 
L 933.208699 207.224532 
L 933.885272 207.715551 
L 934.561846 207.715551 
L 935.23842 207.470042 
L 936.591567 207.470042 
L 937.268141 209.955826 
L 937.944714 211.203833 
L 938.621288 213.945357 
L 939.297861 214.702344 
L 939.974435 214.702344 
L 940.651009 214.446605 
L 942.004156 213.454337 
L 943.357303 211.950591 
L 945.387024 211.950591 
L 946.063598 211.459572 
L 946.740171 211.950591 
L 947.416745 209.209068 
L 948.093319 208.46231 
L 948.769892 207.97129 
L 949.446466 206.968793 
L 950.12304 208.718049 
L 950.799613 207.97129 
L 951.476187 207.470042 
L 952.152761 206.723283 
L 952.829334 208.963558 
L 953.505908 210.211565 
L 954.182482 213.198598 
L 954.859055 213.699847 
L 956.212202 213.699847 
L 958.918497 212.69735 
L 959.595071 211.950591 
L 960.271644 208.718049 
L 960.948218 208.46231 
L 961.624792 204.738748 
L 962.301365 202.754212 
L 962.977939 202.252963 
L 963.654512 201.516435 
L 964.331086 201.260696 
L 965.00766 201.516435 
L 965.684233 202.754212 
L 966.360807 203.245231 
L 967.037381 202.999722 
L 967.713954 203.490741 
L 968.390528 203.74648 
L 969.067102 203.245231 
L 969.743675 205.229767 
L 970.420249 208.963558 
L 971.096822 210.958323 
L 971.773396 212.45184 
L 972.44997 212.69735 
L 973.126543 212.20633 
L 973.803117 211.203833 
L 974.479691 211.950591 
L 975.156264 212.20633 
L 975.832838 211.950591 
L 976.509412 211.459572 
L 977.185985 211.950591 
L 978.539132 211.950591 
L 979.215706 212.45184 
L 979.89228 216.69711 
L 980.568853 228.512257 
L 981.245427 229.780723 
L 981.922001 228.767997 
L 982.598574 225.995784 
L 983.275148 222.722323 
L 983.951722 217.699607 
L 984.628295 168.802285 
L 985.304869 208.2168 
L 985.981443 206.968793 
L 986.658016 207.715551 
L 987.33459 209.955826 
L 988.011163 210.958323 
L 988.687737 211.203833 
L 989.364311 211.203833 
L 993.423753 209.710317 
L 994.100326 209.209068 
L 994.7769 208.963558 
L 995.453473 210.702584 
L 996.130047 203.245231 
L 996.806621 200.524167 
L 997.483194 196.565325 
L 998.159768 194.08977 
L 998.836342 195.082038 
L 999.512915 194.08977 
L 1000.189489 195.082038 
L 1000.866063 195.082038 
L 1001.542636 195.818567 
L 1002.21921 197.547363 
L 1002.895783 202.754212 
L 1003.572357 205.229767 
L 1004.248931 209.209068 
L 1004.925504 211.203833 
L 1005.602078 211.950591 
L 1006.955225 211.950591 
L 1007.631799 211.705082 
L 1008.308373 211.950591 
L 1008.984946 211.950591 
L 1009.66152 212.20633 
L 1010.338093 212.20633 
L 1012.367814 212.953089 
L 1013.044388 215.449103 
L 1013.720962 223.223572 
L 1014.397535 222.722323 
L 1015.074109 219.960341 
L 1015.750683 215.203593 
L 1016.427256 208.718049 
L 1017.10383 159.769579 
L 1017.780403 122.779471 
L 1018.456977 101.082563 
L 1019.133551 202.252963 
L 1019.810124 204.738748 
L 1020.486698 206.477774 
L 1021.163272 209.464807 
L 1022.516419 210.457075 
L 1023.192993 210.457075 
L 1023.869566 210.211565 
L 1024.54614 209.710317 
L 1025.222714 209.710317 
L 1025.899287 209.464807 
L 1026.575861 209.710317 
L 1027.252434 208.2168 
L 1027.929008 207.715551 
L 1028.605582 209.710317 
L 1029.282155 210.702584 
L 1029.958729 195.818567 
L 1030.635303 194.58079 
L 1031.311876 196.810835 
L 1031.98845 195.573057 
L 1033.341597 195.573057 
L 1034.018171 196.309586 
L 1034.694744 202.252963 
L 1035.371318 202.754212 
L 1036.047892 202.252963 
L 1036.724465 203.74648 
L 1037.401039 208.718049 
L 1038.077613 210.457075 
L 1038.754186 211.459572 
L 1039.43076 211.705082 
L 1042.137054 211.705082 
L 1042.813628 212.20633 
L 1043.490202 212.45184 
L 1044.166775 212.20633 
L 1046.196496 212.953089 
L 1046.87307 219.459092 
L 1047.549644 217.955346 
L 1048.226217 213.699847 
L 1048.902791 205.731016 
L 1049.579364 167.093948 
L 1050.255938 148.077186 
L 1050.932512 122.288452 
L 1051.609085 151.002842 
L 1052.285659 163.922783 
L 1052.962233 203.245231 
L 1053.638806 203.99199 
L 1054.31538 207.470042 
L 1054.991954 208.963558 
L 1055.668527 209.209068 
L 1057.021675 208.718049 
L 1057.698248 208.963558 
L 1058.374822 208.718049 
L 1059.051395 209.209068 
L 1059.727969 208.963558 
L 1060.404543 209.209068 
L 1061.081116 211.705082 
L 1061.75769 213.198598 
L 1062.434264 214.201096 
L 1063.110837 213.198598 
L 1063.787411 210.958323 
L 1064.463985 210.211565 
L 1065.140558 203.490741 
L 1065.817132 202.754212 
L 1066.493705 205.485506 
L 1067.170279 209.710317 
L 1067.846853 209.955826 
L 1068.523426 206.968793 
L 1069.2 205.976525 
L 1069.2 205.976525 
" clip-path="url(#p6de5b11a20)" style="fill: none; stroke: #ff0000; stroke-opacity: 0.65; stroke-width: 1.5; stroke-linecap: square"/>
   </g>
   <g id="line2d_28">
    <path d="M 63.135 157.850513 
L 1069.2 157.850513 
" clip-path="url(#p6de5b11a20)" style="fill: none; stroke-dasharray: 11.1,4.8; stroke-dashoffset: 0; stroke: #0000ff; stroke-width: 3"/>
   </g>
   <g id="line2d_29">
    <path d="M 63.135 113.286435 
L 1069.2 113.286435 
" clip-path="url(#p6de5b11a20)" style="fill: none; stroke-dasharray: 11.1,4.8; stroke-dashoffset: 0; stroke: #008000; stroke-width: 3"/>
   </g>
   <g id="line2d_30">
    <path d="M -1 221.510552 
L 30.659465 223.427268 
L 63.135 223.32493 
L 128.086069 220.348595 
L 160.561604 219.914457 
L 193.037139 220.062274 
L 225.512673 219.86495 
L 257.988208 220.511224 
L 290.463742 219.706967 
L 322.939277 220.498586 
L 355.414812 220.604697 
L 387.890346 218.500049 
L 420.365881 216.907071 
L 452.841416 217.18393 
L 485.31695 217.760537 
L 517.792485 216.046104 
L 550.26802 215.375109 
L 582.743554 211.2423 
L 615.219089 211.449044 
L 647.694623 211.878984 
L 680.170158 215.190252 
L 712.645693 212.891306 
L 745.121227 211.77769 
L 777.596762 212.635056 
L 810.072297 211.393314 
L 842.547831 212.589044 
L 875.023366 214.449866 
L 907.4989 210.364092 
L 939.974435 214.311511 
L 972.44997 214.064574 
L 1004.925504 214.486501 
L 1037.401039 210.962266 
L 1069.876574 210.346958 
L 1081 210.421749 
L 1081 210.421749 
" clip-path="url(#p6de5b11a20)" style="fill: none; stroke: #000000; stroke-width: 3; stroke-linecap: square"/>
   </g>
   <g id="patch_3">
    <path d="M 63.135 252.92 
L 63.135 17.64 
" style="fill: none; stroke: #000000; stroke-width: 0.8; stroke-linejoin: miter; stroke-linecap: square"/>
   </g>
   <g id="patch_4">
    <path d="M 1069.2 252.92 
L 1069.2 17.64 
" style="fill: none; stroke: #000000; stroke-width: 0.8; stroke-linejoin: miter; stroke-linecap: square"/>
   </g>
   <g id="patch_5">
    <path d="M 63.135 252.92 
L 1069.2 252.92 
" style="fill: none; stroke: #000000; stroke-width: 0.8; stroke-linejoin: miter; stroke-linecap: square"/>
   </g>
   <g id="patch_6">
    <path d="M 63.135 17.64 
L 1069.2 17.64 
" style="fill: none; stroke: #000000; stroke-width: 0.8; stroke-linejoin: miter; stroke-linecap: square"/>
   </g>
  </g>
 </g>
 <defs>
  <clipPath id="p6de5b11a20">
   <rect x="63.135" y="17.64" width="1006.065" height="235.28"/>
  </clipPath>
 </defs>
</svg>
