<?xml version="1.0" encoding="utf-8" standalone="no"?>
<!DOCTYPE svg PUBLIC "-//W3C//DTD SVG 1.1//EN"
  "http://www.w3.org/Graphics/SVG/1.1/DTD/svg11.dtd">
<svg xmlns:xlink="http://www.w3.org/1999/xlink" width="1080pt" height="288pt" viewBox="0 0 1080 288" xmlns="http://www.w3.org/2000/svg" version="1.1">
 <metadata>
  <rdf:RDF xmlns:dc="http://purl.org/dc/elements/1.1/" xmlns:cc="http://creativecommons.org/ns#" xmlns:rdf="http://www.w3.org/1999/02/22-rdf-syntax-ns#">
   <cc:Work>
    <dc:type rdf:resource="http://purl.org/dc/dcmitype/StillImage"/>
    <dc:date>2024-08-20T22:51:42.147948</dc:date>
    <dc:format>image/svg+xml</dc:format>
    <dc:creator>
     <cc:Agent>
      <dc:title>Matplotlib v3.8.3, https://matplotlib.org/</dc:title>
     </cc:Agent>
    </dc:creator>
   </cc:Work>
  </rdf:RDF>
 </metadata>
 <defs>
  <style type="text/css">*{stroke-linejoin: round; stroke-linecap: butt}</style>
 </defs>
 <g id="figure_1">
  <g id="patch_1">
   <path d="M 0 288 
L 1080 288 
L 1080 0 
L 0 0 
z
" style="fill: #ffffff"/>
  </g>
  <g id="axes_1">
   <g id="patch_2">
    <path d="M 63.135 252.92 
L 1069.2 252.92 
L 1069.2 17.64 
L 63.135 17.64 
z
" style="fill: #ffffff"/>
   </g>
   <g id="matplotlib.axis_1">
    <g id="xtick_1">
     <g id="line2d_1">
      <path d="M 63.135 252.92 
L 63.135 17.64 
" clip-path="url(#p1a01d20223)" style="fill: none; stroke: #b0b0b0; stroke-width: 0.8; stroke-linecap: square"/>
     </g>
     <g id="line2d_2">
      <defs>
       <path id="m6ba27c4df5" d="M 0 0 
L 0 3.5 
" style="stroke: #000000; stroke-width: 0.8"/>
      </defs>
      <g>
       <use xlink:href="#m6ba27c4df5" x="63.135" y="252.92" style="stroke: #000000; stroke-width: 0.8"/>
      </g>
     </g>
     <g id="text_1">
      <!-- 2017-07-01 -->
      <g transform="translate(10.830937 273.597188) scale(0.18 -0.18)">
       <defs>
        <path id="DejaVuSans-32" d="M 1228 531 
L 3431 531 
L 3431 0 
L 469 0 
L 469 531 
Q 828 903 1448 1529 
Q 2069 2156 2228 2338 
Q 2531 2678 2651 2914 
Q 2772 3150 2772 3378 
Q 2772 3750 2511 3984 
Q 2250 4219 1831 4219 
Q 1534 4219 1204 4116 
Q 875 4013 500 3803 
L 500 4441 
Q 881 4594 1212 4672 
Q 1544 4750 1819 4750 
Q 2544 4750 2975 4387 
Q 3406 4025 3406 3419 
Q 3406 3131 3298 2873 
Q 3191 2616 2906 2266 
Q 2828 2175 2409 1742 
Q 1991 1309 1228 531 
z
" transform="scale(0.015625)"/>
        <path id="DejaVuSans-30" d="M 2034 4250 
Q 1547 4250 1301 3770 
Q 1056 3291 1056 2328 
Q 1056 1369 1301 889 
Q 1547 409 2034 409 
Q 2525 409 2770 889 
Q 3016 1369 3016 2328 
Q 3016 3291 2770 3770 
Q 2525 4250 2034 4250 
z
M 2034 4750 
Q 2819 4750 3233 4129 
Q 3647 3509 3647 2328 
Q 3647 1150 3233 529 
Q 2819 -91 2034 -91 
Q 1250 -91 836 529 
Q 422 1150 422 2328 
Q 422 3509 836 4129 
Q 1250 4750 2034 4750 
z
" transform="scale(0.015625)"/>
        <path id="DejaVuSans-31" d="M 794 531 
L 1825 531 
L 1825 4091 
L 703 3866 
L 703 4441 
L 1819 4666 
L 2450 4666 
L 2450 531 
L 3481 531 
L 3481 0 
L 794 0 
L 794 531 
z
" transform="scale(0.015625)"/>
        <path id="DejaVuSans-37" d="M 525 4666 
L 3525 4666 
L 3525 4397 
L 1831 0 
L 1172 0 
L 2766 4134 
L 525 4134 
L 525 4666 
z
" transform="scale(0.015625)"/>
        <path id="DejaVuSans-2d" d="M 313 2009 
L 1997 2009 
L 1997 1497 
L 313 1497 
L 313 2009 
z
" transform="scale(0.015625)"/>
       </defs>
       <use xlink:href="#DejaVuSans-32"/>
       <use xlink:href="#DejaVuSans-30" x="63.623047"/>
       <use xlink:href="#DejaVuSans-31" x="127.246094"/>
       <use xlink:href="#DejaVuSans-37" x="190.869141"/>
       <use xlink:href="#DejaVuSans-2d" x="254.492188"/>
       <use xlink:href="#DejaVuSans-30" x="290.576172"/>
       <use xlink:href="#DejaVuSans-37" x="354.199219"/>
       <use xlink:href="#DejaVuSans-2d" x="417.822266"/>
       <use xlink:href="#DejaVuSans-30" x="453.90625"/>
       <use xlink:href="#DejaVuSans-31" x="517.529297"/>
      </g>
     </g>
    </g>
    <g id="xtick_2">
     <g id="line2d_3">
      <path d="M 193.037139 252.92 
L 193.037139 17.64 
" clip-path="url(#p1a01d20223)" style="fill: none; stroke: #b0b0b0; stroke-width: 0.8; stroke-linecap: square"/>
     </g>
     <g id="line2d_4">
      <g>
       <use xlink:href="#m6ba27c4df5" x="193.037139" y="252.92" style="stroke: #000000; stroke-width: 0.8"/>
      </g>
     </g>
     <g id="text_2">
      <!-- 2017-07-05 -->
      <g transform="translate(140.733076 273.597188) scale(0.18 -0.18)">
       <defs>
        <path id="DejaVuSans-35" d="M 691 4666 
L 3169 4666 
L 3169 4134 
L 1269 4134 
L 1269 2991 
Q 1406 3038 1543 3061 
Q 1681 3084 1819 3084 
Q 2600 3084 3056 2656 
Q 3513 2228 3513 1497 
Q 3513 744 3044 326 
Q 2575 -91 1722 -91 
Q 1428 -91 1123 -41 
Q 819 9 494 109 
L 494 744 
Q 775 591 1075 516 
Q 1375 441 1709 441 
Q 2250 441 2565 725 
Q 2881 1009 2881 1497 
Q 2881 1984 2565 2268 
Q 2250 2553 1709 2553 
Q 1456 2553 1204 2497 
Q 953 2441 691 2322 
L 691 4666 
z
" transform="scale(0.015625)"/>
       </defs>
       <use xlink:href="#DejaVuSans-32"/>
       <use xlink:href="#DejaVuSans-30" x="63.623047"/>
       <use xlink:href="#DejaVuSans-31" x="127.246094"/>
       <use xlink:href="#DejaVuSans-37" x="190.869141"/>
       <use xlink:href="#DejaVuSans-2d" x="254.492188"/>
       <use xlink:href="#DejaVuSans-30" x="290.576172"/>
       <use xlink:href="#DejaVuSans-37" x="354.199219"/>
       <use xlink:href="#DejaVuSans-2d" x="417.822266"/>
       <use xlink:href="#DejaVuSans-30" x="453.90625"/>
       <use xlink:href="#DejaVuSans-35" x="517.529297"/>
      </g>
     </g>
    </g>
    <g id="xtick_3">
     <g id="line2d_5">
      <path d="M 322.939277 252.92 
L 322.939277 17.64 
" clip-path="url(#p1a01d20223)" style="fill: none; stroke: #b0b0b0; stroke-width: 0.8; stroke-linecap: square"/>
     </g>
     <g id="line2d_6">
      <g>
       <use xlink:href="#m6ba27c4df5" x="322.939277" y="252.92" style="stroke: #000000; stroke-width: 0.8"/>
      </g>
     </g>
     <g id="text_3">
      <!-- 2017-07-09 -->
      <g transform="translate(270.635215 273.597188) scale(0.18 -0.18)">
       <defs>
        <path id="DejaVuSans-39" d="M 703 97 
L 703 672 
Q 941 559 1184 500 
Q 1428 441 1663 441 
Q 2288 441 2617 861 
Q 2947 1281 2994 2138 
Q 2813 1869 2534 1725 
Q 2256 1581 1919 1581 
Q 1219 1581 811 2004 
Q 403 2428 403 3163 
Q 403 3881 828 4315 
Q 1253 4750 1959 4750 
Q 2769 4750 3195 4129 
Q 3622 3509 3622 2328 
Q 3622 1225 3098 567 
Q 2575 -91 1691 -91 
Q 1453 -91 1209 -44 
Q 966 3 703 97 
z
M 1959 2075 
Q 2384 2075 2632 2365 
Q 2881 2656 2881 3163 
Q 2881 3666 2632 3958 
Q 2384 4250 1959 4250 
Q 1534 4250 1286 3958 
Q 1038 3666 1038 3163 
Q 1038 2656 1286 2365 
Q 1534 2075 1959 2075 
z
" transform="scale(0.015625)"/>
       </defs>
       <use xlink:href="#DejaVuSans-32"/>
       <use xlink:href="#DejaVuSans-30" x="63.623047"/>
       <use xlink:href="#DejaVuSans-31" x="127.246094"/>
       <use xlink:href="#DejaVuSans-37" x="190.869141"/>
       <use xlink:href="#DejaVuSans-2d" x="254.492188"/>
       <use xlink:href="#DejaVuSans-30" x="290.576172"/>
       <use xlink:href="#DejaVuSans-37" x="354.199219"/>
       <use xlink:href="#DejaVuSans-2d" x="417.822266"/>
       <use xlink:href="#DejaVuSans-30" x="453.90625"/>
       <use xlink:href="#DejaVuSans-39" x="517.529297"/>
      </g>
     </g>
    </g>
    <g id="xtick_4">
     <g id="line2d_7">
      <path d="M 452.841416 252.92 
L 452.841416 17.64 
" clip-path="url(#p1a01d20223)" style="fill: none; stroke: #b0b0b0; stroke-width: 0.8; stroke-linecap: square"/>
     </g>
     <g id="line2d_8">
      <g>
       <use xlink:href="#m6ba27c4df5" x="452.841416" y="252.92" style="stroke: #000000; stroke-width: 0.8"/>
      </g>
     </g>
     <g id="text_4">
      <!-- 2017-07-13 -->
      <g transform="translate(400.537353 273.597188) scale(0.18 -0.18)">
       <defs>
        <path id="DejaVuSans-33" d="M 2597 2516 
Q 3050 2419 3304 2112 
Q 3559 1806 3559 1356 
Q 3559 666 3084 287 
Q 2609 -91 1734 -91 
Q 1441 -91 1130 -33 
Q 819 25 488 141 
L 488 750 
Q 750 597 1062 519 
Q 1375 441 1716 441 
Q 2309 441 2620 675 
Q 2931 909 2931 1356 
Q 2931 1769 2642 2001 
Q 2353 2234 1838 2234 
L 1294 2234 
L 1294 2753 
L 1863 2753 
Q 2328 2753 2575 2939 
Q 2822 3125 2822 3475 
Q 2822 3834 2567 4026 
Q 2313 4219 1838 4219 
Q 1578 4219 1281 4162 
Q 984 4106 628 3988 
L 628 4550 
Q 988 4650 1302 4700 
Q 1616 4750 1894 4750 
Q 2613 4750 3031 4423 
Q 3450 4097 3450 3541 
Q 3450 3153 3228 2886 
Q 3006 2619 2597 2516 
z
" transform="scale(0.015625)"/>
       </defs>
       <use xlink:href="#DejaVuSans-32"/>
       <use xlink:href="#DejaVuSans-30" x="63.623047"/>
       <use xlink:href="#DejaVuSans-31" x="127.246094"/>
       <use xlink:href="#DejaVuSans-37" x="190.869141"/>
       <use xlink:href="#DejaVuSans-2d" x="254.492188"/>
       <use xlink:href="#DejaVuSans-30" x="290.576172"/>
       <use xlink:href="#DejaVuSans-37" x="354.199219"/>
       <use xlink:href="#DejaVuSans-2d" x="417.822266"/>
       <use xlink:href="#DejaVuSans-31" x="453.90625"/>
       <use xlink:href="#DejaVuSans-33" x="517.529297"/>
      </g>
     </g>
    </g>
    <g id="xtick_5">
     <g id="line2d_9">
      <path d="M 582.743554 252.92 
L 582.743554 17.64 
" clip-path="url(#p1a01d20223)" style="fill: none; stroke: #b0b0b0; stroke-width: 0.8; stroke-linecap: square"/>
     </g>
     <g id="line2d_10">
      <g>
       <use xlink:href="#m6ba27c4df5" x="582.743554" y="252.92" style="stroke: #000000; stroke-width: 0.8"/>
      </g>
     </g>
     <g id="text_5">
      <!-- 2017-07-17 -->
      <g transform="translate(530.439492 273.597188) scale(0.18 -0.18)">
       <use xlink:href="#DejaVuSans-32"/>
       <use xlink:href="#DejaVuSans-30" x="63.623047"/>
       <use xlink:href="#DejaVuSans-31" x="127.246094"/>
       <use xlink:href="#DejaVuSans-37" x="190.869141"/>
       <use xlink:href="#DejaVuSans-2d" x="254.492188"/>
       <use xlink:href="#DejaVuSans-30" x="290.576172"/>
       <use xlink:href="#DejaVuSans-37" x="354.199219"/>
       <use xlink:href="#DejaVuSans-2d" x="417.822266"/>
       <use xlink:href="#DejaVuSans-31" x="453.90625"/>
       <use xlink:href="#DejaVuSans-37" x="517.529297"/>
      </g>
     </g>
    </g>
    <g id="xtick_6">
     <g id="line2d_11">
      <path d="M 712.645693 252.92 
L 712.645693 17.64 
" clip-path="url(#p1a01d20223)" style="fill: none; stroke: #b0b0b0; stroke-width: 0.8; stroke-linecap: square"/>
     </g>
     <g id="line2d_12">
      <g>
       <use xlink:href="#m6ba27c4df5" x="712.645693" y="252.92" style="stroke: #000000; stroke-width: 0.8"/>
      </g>
     </g>
     <g id="text_6">
      <!-- 2017-07-21 -->
      <g transform="translate(660.34163 273.597188) scale(0.18 -0.18)">
       <use xlink:href="#DejaVuSans-32"/>
       <use xlink:href="#DejaVuSans-30" x="63.623047"/>
       <use xlink:href="#DejaVuSans-31" x="127.246094"/>
       <use xlink:href="#DejaVuSans-37" x="190.869141"/>
       <use xlink:href="#DejaVuSans-2d" x="254.492188"/>
       <use xlink:href="#DejaVuSans-30" x="290.576172"/>
       <use xlink:href="#DejaVuSans-37" x="354.199219"/>
       <use xlink:href="#DejaVuSans-2d" x="417.822266"/>
       <use xlink:href="#DejaVuSans-32" x="453.90625"/>
       <use xlink:href="#DejaVuSans-31" x="517.529297"/>
      </g>
     </g>
    </g>
    <g id="xtick_7">
     <g id="line2d_13">
      <path d="M 842.547831 252.92 
L 842.547831 17.64 
" clip-path="url(#p1a01d20223)" style="fill: none; stroke: #b0b0b0; stroke-width: 0.8; stroke-linecap: square"/>
     </g>
     <g id="line2d_14">
      <g>
       <use xlink:href="#m6ba27c4df5" x="842.547831" y="252.92" style="stroke: #000000; stroke-width: 0.8"/>
      </g>
     </g>
     <g id="text_7">
      <!-- 2017-07-25 -->
      <g transform="translate(790.243769 273.597188) scale(0.18 -0.18)">
       <use xlink:href="#DejaVuSans-32"/>
       <use xlink:href="#DejaVuSans-30" x="63.623047"/>
       <use xlink:href="#DejaVuSans-31" x="127.246094"/>
       <use xlink:href="#DejaVuSans-37" x="190.869141"/>
       <use xlink:href="#DejaVuSans-2d" x="254.492188"/>
       <use xlink:href="#DejaVuSans-30" x="290.576172"/>
       <use xlink:href="#DejaVuSans-37" x="354.199219"/>
       <use xlink:href="#DejaVuSans-2d" x="417.822266"/>
       <use xlink:href="#DejaVuSans-32" x="453.90625"/>
       <use xlink:href="#DejaVuSans-35" x="517.529297"/>
      </g>
     </g>
    </g>
    <g id="xtick_8">
     <g id="line2d_15">
      <path d="M 972.44997 252.92 
L 972.44997 17.64 
" clip-path="url(#p1a01d20223)" style="fill: none; stroke: #b0b0b0; stroke-width: 0.8; stroke-linecap: square"/>
     </g>
     <g id="line2d_16">
      <g>
       <use xlink:href="#m6ba27c4df5" x="972.44997" y="252.92" style="stroke: #000000; stroke-width: 0.8"/>
      </g>
     </g>
     <g id="text_8">
      <!-- 2017-07-29 -->
      <g transform="translate(920.145907 273.597188) scale(0.18 -0.18)">
       <use xlink:href="#DejaVuSans-32"/>
       <use xlink:href="#DejaVuSans-30" x="63.623047"/>
       <use xlink:href="#DejaVuSans-31" x="127.246094"/>
       <use xlink:href="#DejaVuSans-37" x="190.869141"/>
       <use xlink:href="#DejaVuSans-2d" x="254.492188"/>
       <use xlink:href="#DejaVuSans-30" x="290.576172"/>
       <use xlink:href="#DejaVuSans-37" x="354.199219"/>
       <use xlink:href="#DejaVuSans-2d" x="417.822266"/>
       <use xlink:href="#DejaVuSans-32" x="453.90625"/>
       <use xlink:href="#DejaVuSans-39" x="517.529297"/>
      </g>
     </g>
    </g>
   </g>
   <g id="matplotlib.axis_2">
    <g id="ytick_1">
     <g id="line2d_17">
      <path d="M 63.135 222.231304 
L 1069.2 222.231304 
" clip-path="url(#p1a01d20223)" style="fill: none; stroke: #b0b0b0; stroke-width: 0.8; stroke-linecap: square"/>
     </g>
     <g id="line2d_18">
      <defs>
       <path id="m61981568fd" d="M 0 0 
L -3.5 0 
" style="stroke: #000000; stroke-width: 0.8"/>
      </defs>
      <g>
       <use xlink:href="#m61981568fd" x="63.135" y="222.231304" style="stroke: #000000; stroke-width: 0.8"/>
      </g>
     </g>
     <g id="text_9">
      <!-- 10 -->
      <g transform="translate(33.23 229.069898) scale(0.18 -0.18)">
       <use xlink:href="#DejaVuSans-31"/>
       <use xlink:href="#DejaVuSans-30" x="63.623047"/>
      </g>
     </g>
    </g>
    <g id="ytick_2">
     <g id="line2d_19">
      <path d="M 63.135 171.083478 
L 1069.2 171.083478 
" clip-path="url(#p1a01d20223)" style="fill: none; stroke: #b0b0b0; stroke-width: 0.8; stroke-linecap: square"/>
     </g>
     <g id="line2d_20">
      <g>
       <use xlink:href="#m61981568fd" x="63.135" y="171.083478" style="stroke: #000000; stroke-width: 0.8"/>
      </g>
     </g>
     <g id="text_10">
      <!-- 15 -->
      <g transform="translate(33.23 177.922072) scale(0.18 -0.18)">
       <use xlink:href="#DejaVuSans-31"/>
       <use xlink:href="#DejaVuSans-35" x="63.623047"/>
      </g>
     </g>
    </g>
    <g id="ytick_3">
     <g id="line2d_21">
      <path d="M 63.135 119.935652 
L 1069.2 119.935652 
" clip-path="url(#p1a01d20223)" style="fill: none; stroke: #b0b0b0; stroke-width: 0.8; stroke-linecap: square"/>
     </g>
     <g id="line2d_22">
      <g>
       <use xlink:href="#m61981568fd" x="63.135" y="119.935652" style="stroke: #000000; stroke-width: 0.8"/>
      </g>
     </g>
     <g id="text_11">
      <!-- 20 -->
      <g transform="translate(33.23 126.774246) scale(0.18 -0.18)">
       <use xlink:href="#DejaVuSans-32"/>
       <use xlink:href="#DejaVuSans-30" x="63.623047"/>
      </g>
     </g>
    </g>
    <g id="ytick_4">
     <g id="line2d_23">
      <path d="M 63.135 68.787826 
L 1069.2 68.787826 
" clip-path="url(#p1a01d20223)" style="fill: none; stroke: #b0b0b0; stroke-width: 0.8; stroke-linecap: square"/>
     </g>
     <g id="line2d_24">
      <g>
       <use xlink:href="#m61981568fd" x="63.135" y="68.787826" style="stroke: #000000; stroke-width: 0.8"/>
      </g>
     </g>
     <g id="text_12">
      <!-- 25 -->
      <g transform="translate(33.23 75.62642) scale(0.18 -0.18)">
       <use xlink:href="#DejaVuSans-32"/>
       <use xlink:href="#DejaVuSans-35" x="63.623047"/>
      </g>
     </g>
    </g>
    <g id="ytick_5">
     <g id="line2d_25">
      <path d="M 63.135 17.64 
L 1069.2 17.64 
" clip-path="url(#p1a01d20223)" style="fill: none; stroke: #b0b0b0; stroke-width: 0.8; stroke-linecap: square"/>
     </g>
     <g id="line2d_26">
      <g>
       <use xlink:href="#m61981568fd" x="63.135" y="17.64" style="stroke: #000000; stroke-width: 0.8"/>
      </g>
     </g>
     <g id="text_13">
      <!-- 30 -->
      <g transform="translate(33.23 24.478594) scale(0.18 -0.18)">
       <use xlink:href="#DejaVuSans-33"/>
       <use xlink:href="#DejaVuSans-30" x="63.623047"/>
      </g>
     </g>
    </g>
    <g id="text_14">
     <!-- Temperature (°C) -->
     <g transform="translate(25.486562 212.952812) rotate(-90) scale(0.18 -0.18)">
      <defs>
       <path id="DejaVuSans-54" d="M -19 4666 
L 3928 4666 
L 3928 4134 
L 2272 4134 
L 2272 0 
L 1638 0 
L 1638 4134 
L -19 4134 
L -19 4666 
z
" transform="scale(0.015625)"/>
       <path id="DejaVuSans-65" d="M 3597 1894 
L 3597 1613 
L 953 1613 
Q 991 1019 1311 708 
Q 1631 397 2203 397 
Q 2534 397 2845 478 
Q 3156 559 3463 722 
L 3463 178 
Q 3153 47 2828 -22 
Q 2503 -91 2169 -91 
Q 1331 -91 842 396 
Q 353 884 353 1716 
Q 353 2575 817 3079 
Q 1281 3584 2069 3584 
Q 2775 3584 3186 3129 
Q 3597 2675 3597 1894 
z
M 3022 2063 
Q 3016 2534 2758 2815 
Q 2500 3097 2075 3097 
Q 1594 3097 1305 2825 
Q 1016 2553 972 2059 
L 3022 2063 
z
" transform="scale(0.015625)"/>
       <path id="DejaVuSans-6d" d="M 3328 2828 
Q 3544 3216 3844 3400 
Q 4144 3584 4550 3584 
Q 5097 3584 5394 3201 
Q 5691 2819 5691 2113 
L 5691 0 
L 5113 0 
L 5113 2094 
Q 5113 2597 4934 2840 
Q 4756 3084 4391 3084 
Q 3944 3084 3684 2787 
Q 3425 2491 3425 1978 
L 3425 0 
L 2847 0 
L 2847 2094 
Q 2847 2600 2669 2842 
Q 2491 3084 2119 3084 
Q 1678 3084 1418 2786 
Q 1159 2488 1159 1978 
L 1159 0 
L 581 0 
L 581 3500 
L 1159 3500 
L 1159 2956 
Q 1356 3278 1631 3431 
Q 1906 3584 2284 3584 
Q 2666 3584 2933 3390 
Q 3200 3197 3328 2828 
z
" transform="scale(0.015625)"/>
       <path id="DejaVuSans-70" d="M 1159 525 
L 1159 -1331 
L 581 -1331 
L 581 3500 
L 1159 3500 
L 1159 2969 
Q 1341 3281 1617 3432 
Q 1894 3584 2278 3584 
Q 2916 3584 3314 3078 
Q 3713 2572 3713 1747 
Q 3713 922 3314 415 
Q 2916 -91 2278 -91 
Q 1894 -91 1617 61 
Q 1341 213 1159 525 
z
M 3116 1747 
Q 3116 2381 2855 2742 
Q 2594 3103 2138 3103 
Q 1681 3103 1420 2742 
Q 1159 2381 1159 1747 
Q 1159 1113 1420 752 
Q 1681 391 2138 391 
Q 2594 391 2855 752 
Q 3116 1113 3116 1747 
z
" transform="scale(0.015625)"/>
       <path id="DejaVuSans-72" d="M 2631 2963 
Q 2534 3019 2420 3045 
Q 2306 3072 2169 3072 
Q 1681 3072 1420 2755 
Q 1159 2438 1159 1844 
L 1159 0 
L 581 0 
L 581 3500 
L 1159 3500 
L 1159 2956 
Q 1341 3275 1631 3429 
Q 1922 3584 2338 3584 
Q 2397 3584 2469 3576 
Q 2541 3569 2628 3553 
L 2631 2963 
z
" transform="scale(0.015625)"/>
       <path id="DejaVuSans-61" d="M 2194 1759 
Q 1497 1759 1228 1600 
Q 959 1441 959 1056 
Q 959 750 1161 570 
Q 1363 391 1709 391 
Q 2188 391 2477 730 
Q 2766 1069 2766 1631 
L 2766 1759 
L 2194 1759 
z
M 3341 1997 
L 3341 0 
L 2766 0 
L 2766 531 
Q 2569 213 2275 61 
Q 1981 -91 1556 -91 
Q 1019 -91 701 211 
Q 384 513 384 1019 
Q 384 1609 779 1909 
Q 1175 2209 1959 2209 
L 2766 2209 
L 2766 2266 
Q 2766 2663 2505 2880 
Q 2244 3097 1772 3097 
Q 1472 3097 1187 3025 
Q 903 2953 641 2809 
L 641 3341 
Q 956 3463 1253 3523 
Q 1550 3584 1831 3584 
Q 2591 3584 2966 3190 
Q 3341 2797 3341 1997 
z
" transform="scale(0.015625)"/>
       <path id="DejaVuSans-74" d="M 1172 4494 
L 1172 3500 
L 2356 3500 
L 2356 3053 
L 1172 3053 
L 1172 1153 
Q 1172 725 1289 603 
Q 1406 481 1766 481 
L 2356 481 
L 2356 0 
L 1766 0 
Q 1100 0 847 248 
Q 594 497 594 1153 
L 594 3053 
L 172 3053 
L 172 3500 
L 594 3500 
L 594 4494 
L 1172 4494 
z
" transform="scale(0.015625)"/>
       <path id="DejaVuSans-75" d="M 544 1381 
L 544 3500 
L 1119 3500 
L 1119 1403 
Q 1119 906 1312 657 
Q 1506 409 1894 409 
Q 2359 409 2629 706 
Q 2900 1003 2900 1516 
L 2900 3500 
L 3475 3500 
L 3475 0 
L 2900 0 
L 2900 538 
Q 2691 219 2414 64 
Q 2138 -91 1772 -91 
Q 1169 -91 856 284 
Q 544 659 544 1381 
z
M 1991 3584 
L 1991 3584 
z
" transform="scale(0.015625)"/>
       <path id="DejaVuSans-20" transform="scale(0.015625)"/>
       <path id="DejaVuSans-28" d="M 1984 4856 
Q 1566 4138 1362 3434 
Q 1159 2731 1159 2009 
Q 1159 1288 1364 580 
Q 1569 -128 1984 -844 
L 1484 -844 
Q 1016 -109 783 600 
Q 550 1309 550 2009 
Q 550 2706 781 3412 
Q 1013 4119 1484 4856 
L 1984 4856 
z
" transform="scale(0.015625)"/>
       <path id="DejaVuSans-b0" d="M 1600 4347 
Q 1350 4347 1178 4173 
Q 1006 4000 1006 3750 
Q 1006 3503 1178 3333 
Q 1350 3163 1600 3163 
Q 1850 3163 2022 3333 
Q 2194 3503 2194 3750 
Q 2194 3997 2020 4172 
Q 1847 4347 1600 4347 
z
M 1600 4750 
Q 1800 4750 1984 4673 
Q 2169 4597 2303 4453 
Q 2447 4313 2519 4134 
Q 2591 3956 2591 3750 
Q 2591 3338 2302 3052 
Q 2013 2766 1594 2766 
Q 1172 2766 890 3047 
Q 609 3328 609 3750 
Q 609 4169 896 4459 
Q 1184 4750 1600 4750 
z
" transform="scale(0.015625)"/>
       <path id="DejaVuSans-43" d="M 4122 4306 
L 4122 3641 
Q 3803 3938 3442 4084 
Q 3081 4231 2675 4231 
Q 1875 4231 1450 3742 
Q 1025 3253 1025 2328 
Q 1025 1406 1450 917 
Q 1875 428 2675 428 
Q 3081 428 3442 575 
Q 3803 722 4122 1019 
L 4122 359 
Q 3791 134 3420 21 
Q 3050 -91 2638 -91 
Q 1578 -91 968 557 
Q 359 1206 359 2328 
Q 359 3453 968 4101 
Q 1578 4750 2638 4750 
Q 3056 4750 3426 4639 
Q 3797 4528 4122 4306 
z
" transform="scale(0.015625)"/>
       <path id="DejaVuSans-29" d="M 513 4856 
L 1013 4856 
Q 1481 4119 1714 3412 
Q 1947 2706 1947 2009 
Q 1947 1309 1714 600 
Q 1481 -109 1013 -844 
L 513 -844 
Q 928 -128 1133 580 
Q 1338 1288 1338 2009 
Q 1338 2731 1133 3434 
Q 928 4138 513 4856 
z
" transform="scale(0.015625)"/>
      </defs>
      <use xlink:href="#DejaVuSans-54"/>
      <use xlink:href="#DejaVuSans-65" x="44.083984"/>
      <use xlink:href="#DejaVuSans-6d" x="105.607422"/>
      <use xlink:href="#DejaVuSans-70" x="203.019531"/>
      <use xlink:href="#DejaVuSans-65" x="266.496094"/>
      <use xlink:href="#DejaVuSans-72" x="328.019531"/>
      <use xlink:href="#DejaVuSans-61" x="369.132812"/>
      <use xlink:href="#DejaVuSans-74" x="430.412109"/>
      <use xlink:href="#DejaVuSans-75" x="469.621094"/>
      <use xlink:href="#DejaVuSans-72" x="533"/>
      <use xlink:href="#DejaVuSans-65" x="571.863281"/>
      <use xlink:href="#DejaVuSans-20" x="633.386719"/>
      <use xlink:href="#DejaVuSans-28" x="665.173828"/>
      <use xlink:href="#DejaVuSans-b0" x="704.1875"/>
      <use xlink:href="#DejaVuSans-43" x="754.1875"/>
      <use xlink:href="#DejaVuSans-29" x="824.011719"/>
     </g>
    </g>
   </g>
   <g id="line2d_27">
    <path d="M 63.135 242.230104 
L 63.811574 242.230104 
L 64.488147 241.974365 
L 65.164721 240.951409 
L 65.841295 241.207148 
L 66.517868 241.207148 
L 67.194442 239.928452 
L 67.871015 238.915725 
L 68.547589 238.148508 
L 69.224163 237.63703 
L 69.900736 237.892769 
L 70.57731 238.915725 
L 71.253884 239.171464 
L 71.930457 239.171464 
L 72.607031 239.672713 
L 73.283605 241.462887 
L 73.960178 242.230104 
L 75.313325 242.741583 
L 75.989899 242.485843 
L 76.666473 242.485843 
L 77.343046 242.230104 
L 78.01962 242.230104 
L 79.372767 241.718626 
L 80.049341 241.718626 
L 80.725915 241.207148 
L 81.402488 240.184191 
L 82.079062 238.148508 
L 82.755636 237.135781 
L 83.432209 236.624303 
L 84.108783 237.38129 
L 84.785356 233.831631 
L 85.46193 233.320153 
L 86.138504 233.320153 
L 88.168225 234.08737 
L 88.844798 234.588619 
L 90.197946 240.69567 
L 90.874519 241.718626 
L 91.551093 242.230104 
L 97.640256 242.230104 
L 99.669976 241.462887 
L 100.34655 241.718626 
L 101.023124 241.718626 
L 101.699697 241.974365 
L 102.376271 238.148508 
L 103.052845 237.63703 
L 104.405992 238.148508 
L 105.759139 239.672713 
L 106.435713 239.427203 
L 107.112286 239.672713 
L 107.78886 240.951409 
L 108.465434 241.974365 
L 109.142007 242.230104 
L 109.818581 242.230104 
L 110.495155 242.485843 
L 112.524876 241.718626 
L 113.201449 241.718626 
L 114.554597 241.207148 
L 115.23117 240.69567 
L 115.907744 238.148508 
L 116.584317 236.368563 
L 117.260891 235.355837 
L 117.937465 232.563165 
L 118.614038 223.724821 
L 119.290612 221.464087 
L 119.967186 226.998282 
L 120.643759 231.550438 
L 121.320333 234.33288 
L 121.996907 235.601346 
L 124.026627 240.69567 
L 124.703201 241.462887 
L 125.379775 241.718626 
L 126.056348 241.718626 
L 126.732922 241.974365 
L 128.086069 241.974365 
L 128.762643 241.718626 
L 129.439217 241.718626 
L 130.11579 241.462887 
L 130.792364 240.951409 
L 131.468937 239.928452 
L 132.145511 239.672713 
L 132.822085 237.892769 
L 133.498658 237.63703 
L 135.528379 237.63703 
L 136.204953 237.892769 
L 137.5581 237.38129 
L 138.234674 237.63703 
L 139.587821 237.135781 
L 140.264395 238.148508 
L 141.617542 241.207148 
L 142.294116 241.718626 
L 142.970689 241.718626 
L 143.647263 241.974365 
L 144.323837 241.974365 
L 145.00041 241.718626 
L 146.353557 240.69567 
L 147.706705 239.171464 
L 148.383278 238.659986 
L 149.059852 237.38129 
L 149.736426 236.880042 
L 150.412999 235.100097 
L 151.089573 232.818904 
L 151.766147 232.307426 
L 152.44272 228.512257 
L 153.119294 227.75527 
L 154.472441 226.752772 
L 155.149015 226.998282 
L 155.825588 228.266748 
L 156.502162 230.026233 
L 157.178736 234.588619 
L 157.855309 237.892769 
L 158.531883 239.427203 
L 159.208457 240.184191 
L 159.88503 240.69567 
L 160.561604 240.69567 
L 161.238178 240.951409 
L 163.267898 240.184191 
L 165.297619 240.184191 
L 165.974193 239.928452 
L 166.650767 238.915725 
L 168.003914 239.427203 
L 168.680488 239.427203 
L 169.357061 239.171464 
L 170.033635 239.171464 
L 170.710208 238.915725 
L 172.063356 237.892769 
L 172.739929 236.624303 
L 173.416503 236.624303 
L 174.093077 236.368563 
L 174.76965 236.368563 
L 175.446224 238.659986 
L 176.122798 239.672713 
L 176.799371 239.672713 
L 177.475945 239.928452 
L 178.152518 239.672713 
L 178.829092 238.915725 
L 179.505666 238.404247 
L 180.182239 237.38129 
L 180.858813 236.880042 
L 181.535387 235.355837 
L 182.21196 235.100097 
L 182.888534 233.575892 
L 183.565108 230.026233 
L 184.241681 224.727318 
L 184.918255 217.699607 
L 186.271402 210.702584 
L 186.947976 210.211565 
L 187.624549 211.203833 
L 188.301123 213.945357 
L 188.977697 215.449103 
L 189.65427 219.203353 
L 191.007418 230.281972 
L 191.683991 233.064414 
L 192.360565 236.624303 
L 193.037139 237.135781 
L 193.713712 237.135781 
L 194.390286 236.880042 
L 195.743433 236.880042 
L 196.420007 236.624303 
L 199.802875 236.624303 
L 200.479449 237.135781 
L 201.156022 237.38129 
L 201.832596 242.997322 
L 202.509169 241.974365 
L 203.185743 242.741583 
L 203.862317 241.718626 
L 204.53889 229.524984 
L 205.215464 227.75527 
L 205.892038 229.023736 
L 206.568611 231.806177 
L 207.245185 233.064414 
L 207.921759 233.831631 
L 208.598332 235.100097 
L 209.274906 235.857085 
L 209.951479 236.112824 
L 210.628053 236.112824 
L 211.304627 235.857085 
L 211.9812 235.355837 
L 212.657774 235.100097 
L 213.334348 234.588619 
L 214.010921 233.575892 
L 215.364069 232.051687 
L 216.040642 229.524984 
L 216.717216 229.023736 
L 217.39379 225.995784 
L 218.070363 224.22607 
L 218.746937 224.22607 
L 220.100084 219.960341 
L 220.776658 217.699607 
L 221.453231 217.198358 
L 222.129805 216.4516 
L 222.806379 219.459092 
L 224.159526 228.011009 
L 224.8361 230.537711 
L 226.189247 234.08737 
L 226.86582 234.844358 
L 228.218968 234.844358 
L 228.895541 234.588619 
L 229.572115 234.844358 
L 230.925262 234.33288 
L 231.601836 234.588619 
L 232.27841 233.831631 
L 232.954983 233.575892 
L 234.30813 234.08737 
L 235.661278 221.709597 
L 236.337851 217.454097 
L 237.014425 216.952849 
L 237.690999 213.454337 
L 238.367572 226.752772 
L 239.044146 224.481809 
L 239.72072 223.469082 
L 240.397293 226.497033 
L 241.073867 231.294699 
L 241.75044 233.831631 
L 242.427014 234.08737 
L 243.103588 234.08737 
L 243.780161 234.33288 
L 244.456735 234.08737 
L 245.133309 234.08737 
L 247.839603 233.064414 
L 248.516177 233.320153 
L 249.192751 232.563165 
L 250.545898 231.550438 
L 251.222471 228.011009 
L 251.899045 227.254021 
L 252.575619 227.75527 
L 253.252192 225.484306 
L 253.928766 223.98056 
L 254.60534 222.967833 
L 255.281913 223.223572 
L 255.958487 223.724821 
L 256.635061 223.98056 
L 257.311634 224.983057 
L 258.664781 232.307426 
L 259.341355 233.831631 
L 260.017929 234.33288 
L 261.371076 234.33288 
L 262.04765 234.08737 
L 265.430518 234.08737 
L 266.107091 233.320153 
L 266.783665 233.320153 
L 267.460239 230.79345 
L 268.136812 229.269245 
L 268.813386 224.481809 
L 269.48996 208.718049 
L 270.166533 203.245231 
L 270.843107 190.642407 
L 271.519681 182.029113 
L 272.196254 222.967833 
L 273.549401 224.983057 
L 274.225975 224.22607 
L 274.902549 227.254021 
L 275.579122 231.03896 
L 276.255696 232.051687 
L 277.608843 232.563165 
L 278.285417 232.307426 
L 278.961991 232.307426 
L 280.315138 231.806177 
L 280.991711 232.051687 
L 282.344859 231.550438 
L 283.021432 231.550438 
L 283.698006 230.281972 
L 284.37458 226.998282 
L 285.051153 225.484306 
L 285.727727 224.983057 
L 286.404301 224.727318 
L 287.080874 225.238797 
L 288.434022 228.266748 
L 289.110595 227.75527 
L 289.787169 226.998282 
L 290.463742 227.254021 
L 291.140316 228.512257 
L 291.81689 232.051687 
L 292.493463 233.575892 
L 293.170037 233.831631 
L 294.523184 233.831631 
L 295.199758 233.575892 
L 296.552905 233.575892 
L 297.229479 233.831631 
L 298.582626 233.831631 
L 299.2592 233.064414 
L 299.935773 232.818904 
L 300.612347 230.026233 
L 301.288921 222.466584 
L 301.965494 201.516435 
L 302.642068 190.141158 
L 303.318642 189.650139 
L 303.995215 171.98368 
L 304.671789 168.802285 
L 305.348362 217.454097 
L 306.024936 220.962838 
L 306.70151 221.464087 
L 307.378083 222.967833 
L 308.054657 228.011009 
L 308.731231 230.537711 
L 310.084378 230.537711 
L 310.760952 230.79345 
L 311.437525 230.026233 
L 312.114099 230.281972 
L 312.790672 230.026233 
L 313.467246 230.281972 
L 314.820393 230.281972 
L 315.496967 230.537711 
L 316.173541 230.281972 
L 316.850114 226.998282 
L 317.526688 224.481809 
L 318.203262 223.98056 
L 318.879835 224.983057 
L 319.556409 225.238797 
L 320.232983 226.241294 
L 320.909556 226.497033 
L 321.58613 226.998282 
L 322.262703 226.497033 
L 322.939277 226.497033 
L 323.615851 226.752772 
L 324.292424 226.497033 
L 324.968998 226.752772 
L 325.645572 229.524984 
L 326.322145 230.79345 
L 326.998719 231.03896 
L 327.675293 231.03896 
L 328.351866 230.79345 
L 329.02844 231.03896 
L 329.705013 231.03896 
L 330.381587 231.294699 
L 331.734734 231.294699 
L 332.411308 230.79345 
L 333.087882 230.537711 
L 334.441029 216.69711 
L 335.117603 217.955346 
L 335.794176 219.459092 
L 336.47075 214.947854 
L 337.147323 208.46231 
L 337.823897 211.705082 
L 338.500471 208.2168 
L 339.177044 224.727318 
L 339.853618 225.995784 
L 340.530192 226.241294 
L 341.206765 225.995784 
L 341.883339 229.780723 
L 342.559913 230.537711 
L 343.236486 230.537711 
L 343.91306 230.026233 
L 345.266207 230.026233 
L 345.942781 230.281972 
L 347.295928 231.294699 
L 347.972502 229.269245 
L 348.649075 228.767997 
L 349.325649 230.026233 
L 350.002223 230.026233 
L 350.678796 228.266748 
L 351.35537 228.767997 
L 352.031944 228.512257 
L 352.708517 228.767997 
L 353.385091 228.767997 
L 354.061664 228.512257 
L 354.738238 229.023736 
L 355.414812 229.023736 
L 356.091385 228.767997 
L 356.767959 228.011009 
L 357.444533 228.011009 
L 358.121106 229.269245 
L 358.79768 230.79345 
L 359.474254 231.294699 
L 360.150827 231.550438 
L 363.533695 231.550438 
L 364.210269 231.806177 
L 364.886843 231.806177 
L 366.23999 230.79345 
L 367.593137 220.707099 
L 368.946284 209.464807 
L 370.299432 198.294122 
L 370.976005 198.294122 
L 371.652579 202.999722 
L 372.329153 223.724821 
L 373.005726 224.983057 
L 374.358874 225.995784 
L 375.035447 228.767997 
L 375.712021 230.281972 
L 376.388594 230.281972 
L 377.065168 230.026233 
L 377.741742 229.269245 
L 378.418315 229.023736 
L 379.094889 229.269245 
L 379.771463 229.780723 
L 380.448036 230.026233 
L 381.801184 230.026233 
L 382.477757 229.524984 
L 383.154331 229.269245 
L 383.830905 227.75527 
L 384.507478 228.266748 
L 385.184052 228.512257 
L 386.537199 228.512257 
L 387.213773 228.011009 
L 387.890346 228.011009 
L 388.56692 227.49953 
L 389.243494 227.75527 
L 389.920067 227.75527 
L 390.596641 227.49953 
L 391.273215 226.998282 
L 391.949788 228.011009 
L 392.626362 230.026233 
L 393.302935 230.537711 
L 393.979509 230.79345 
L 396.00923 230.79345 
L 396.685804 231.03896 
L 398.038951 231.03896 
L 398.715525 231.294699 
L 399.392098 230.537711 
L 400.068672 215.704842 
L 400.745245 167.830477 
L 401.421819 156.117624 
L 402.098393 155.872115 
L 402.774966 145.16176 
L 403.45154 126.431426 
L 404.128114 116.69288 
L 404.804687 141.264296 
L 405.481261 207.97129 
L 406.157835 218.957843 
L 406.834408 218.957843 
L 408.187555 226.241294 
L 408.864129 228.011009 
L 409.540703 228.266748 
L 410.217276 228.011009 
L 410.89385 227.49953 
L 411.570424 227.254021 
L 412.923571 227.75527 
L 413.600145 227.49953 
L 414.953292 227.49953 
L 415.629866 228.266748 
L 416.306439 228.512257 
L 416.983013 227.75527 
L 417.659586 228.011009 
L 420.365881 228.011009 
L 422.395602 227.254021 
L 423.072176 227.49953 
L 423.748749 227.49953 
L 424.425323 226.998282 
L 425.101896 227.49953 
L 425.77847 227.75527 
L 426.455044 228.767997 
L 427.131617 228.767997 
L 427.808191 229.023736 
L 428.484765 228.512257 
L 429.161338 229.023736 
L 429.837912 228.767997 
L 430.514486 229.023736 
L 431.191059 229.023736 
L 432.544206 226.241294 
L 433.22078 223.469082 
L 433.897354 201.516435 
L 434.573927 172.965718 
L 435.250501 160.751617 
L 437.280222 106.453085 
L 437.956796 106.944104 
L 438.633369 199.531899 
L 439.309943 214.201096 
L 440.66309 219.960341 
L 441.339664 224.22607 
L 442.016237 225.740045 
L 443.369385 225.740045 
L 444.722532 224.727318 
L 445.399106 224.983057 
L 446.075679 225.484306 
L 446.752253 226.241294 
L 448.1054 226.241294 
L 448.781974 225.995784 
L 449.458547 226.497033 
L 450.135121 225.995784 
L 452.164842 226.752772 
L 452.841416 226.752772 
L 454.194563 227.254021 
L 454.871137 227.254021 
L 455.54771 225.995784 
L 456.900857 225.995784 
L 457.577431 225.740045 
L 458.254005 225.995784 
L 458.930578 227.49953 
L 459.607152 228.011009 
L 460.960299 228.011009 
L 461.636873 227.75527 
L 464.343167 227.75527 
L 465.019741 227.254021 
L 465.696315 225.995784 
L 466.372888 223.724821 
L 467.726036 142.246334 
L 468.402609 151.493861 
L 469.079183 117.910198 
L 469.755757 107.189614 
L 470.43233 85.40064 
L 471.108904 98.392188 
L 471.785477 201.260696 
L 472.462051 208.2168 
L 473.138625 209.955826 
L 473.815198 213.945357 
L 474.491772 219.459092 
L 475.168346 223.724821 
L 475.844919 224.727318 
L 476.521493 224.983057 
L 477.198067 224.983057 
L 477.87464 224.727318 
L 479.227787 224.727318 
L 479.904361 224.983057 
L 480.580935 225.740045 
L 481.257508 225.740045 
L 481.934082 225.995784 
L 483.963803 225.238797 
L 485.31695 225.740045 
L 485.993524 225.740045 
L 486.670098 225.995784 
L 488.023245 224.983057 
L 488.699818 224.22607 
L 489.376392 224.22607 
L 490.052966 223.223572 
L 490.729539 223.223572 
L 491.406113 224.481809 
L 492.082687 226.241294 
L 492.75926 227.254021 
L 493.435834 227.49953 
L 494.112408 227.254021 
L 494.788981 227.254021 
L 495.465555 226.998282 
L 497.495276 226.998282 
L 498.171849 226.752772 
L 498.848423 226.241294 
L 499.524997 223.98056 
L 500.20157 223.724821 
L 500.878144 201.761944 
L 501.554718 190.887917 
L 502.231291 190.642407 
L 502.907865 193.844261 
L 503.584438 198.294122 
L 504.261012 218.200856 
L 504.937586 218.957843 
L 505.614159 218.702104 
L 506.290733 218.957843 
L 506.967307 219.704602 
L 507.64388 220.962838 
L 508.320454 224.983057 
L 508.997028 226.497033 
L 509.673601 226.998282 
L 510.350175 227.254021 
L 511.026748 227.254021 
L 511.703322 226.998282 
L 513.056469 226.998282 
L 513.733043 227.75527 
L 514.409617 227.75527 
L 516.439338 226.998282 
L 517.115911 227.254021 
L 517.792485 226.998282 
L 519.822206 226.998282 
L 520.498779 226.497033 
L 522.5285 226.497033 
L 523.205074 225.995784 
L 524.558221 225.484306 
L 525.234795 226.241294 
L 525.911369 227.49953 
L 526.587942 228.011009 
L 528.617663 228.011009 
L 531.323958 226.998282 
L 532.000531 226.998282 
L 532.677105 225.740045 
L 533.353679 223.223572 
L 534.030252 223.469082 
L 534.706826 213.699847 
L 535.383399 200.022918 
L 536.059973 202.754212 
L 536.736547 192.862223 
L 537.41312 217.454097 
L 538.089694 215.950351 
L 538.766268 216.69711 
L 539.442841 218.702104 
L 540.119415 219.704602 
L 540.795989 220.20585 
L 541.472562 222.466584 
L 542.149136 225.484306 
L 542.825709 227.49953 
L 543.502283 227.75527 
L 544.178857 227.49953 
L 544.85543 227.49953 
L 545.532004 227.254021 
L 546.208578 227.49953 
L 546.885151 227.49953 
L 548.238299 228.011009 
L 548.914872 227.49953 
L 549.591446 227.75527 
L 550.26802 227.49953 
L 555.004035 227.49953 
L 555.680609 227.75527 
L 556.357182 227.49953 
L 557.033756 226.752772 
L 557.71033 226.241294 
L 559.063477 226.752772 
L 559.74005 227.49953 
L 561.093198 228.011009 
L 561.769771 228.011009 
L 562.446345 227.75527 
L 563.122919 227.75527 
L 563.799492 227.254021 
L 565.829213 226.497033 
L 566.505787 224.983057 
L 567.18236 221.208348 
L 567.858934 215.203593 
L 568.535508 214.446605 
L 569.212081 214.201096 
L 569.888655 214.947854 
L 570.565229 213.699847 
L 571.241802 210.958323 
L 571.918376 205.731016 
L 572.59495 206.968793 
L 573.271523 210.958323 
L 573.948097 211.203833 
L 574.62467 214.702344 
L 575.301244 220.962838 
L 575.977818 224.983057 
L 576.654391 225.995784 
L 577.330965 226.497033 
L 578.007539 226.497033 
L 578.684112 226.241294 
L 579.360686 226.497033 
L 580.03726 226.241294 
L 580.713833 226.241294 
L 582.06698 226.752772 
L 582.743554 226.752772 
L 583.420128 226.497033 
L 584.096701 224.727318 
L 584.773275 222.466584 
L 585.449849 222.221075 
L 586.126422 222.722323 
L 586.802996 222.967833 
L 587.47957 223.724821 
L 588.832717 223.223572 
L 589.509291 222.722323 
L 590.185864 221.965336 
L 590.862438 219.203353 
L 591.539011 219.203353 
L 592.215585 222.722323 
L 592.892159 225.484306 
L 593.568732 226.497033 
L 594.245306 226.998282 
L 594.92188 226.998282 
L 595.598453 227.254021 
L 597.628174 226.497033 
L 598.304748 226.497033 
L 599.657895 225.995784 
L 600.334469 225.484306 
L 602.36419 220.962838 
L 603.040763 219.960341 
L 603.717337 217.955346 
L 604.393911 217.198358 
L 605.070484 215.449103 
L 605.747058 214.201096 
L 606.423631 213.945357 
L 607.100205 214.201096 
L 607.776779 214.702344 
L 608.453352 219.203353 
L 609.129926 224.727318 
L 609.8065 226.497033 
L 610.483073 226.998282 
L 611.159647 227.254021 
L 613.865941 227.254021 
L 614.542515 226.998282 
L 615.219089 226.998282 
L 615.895662 226.752772 
L 617.24881 226.752772 
L 617.925383 226.241294 
L 618.601957 223.724821 
L 619.278531 222.967833 
L 619.955104 223.469082 
L 620.631678 223.724821 
L 621.308252 223.724821 
L 621.984825 223.98056 
L 622.661399 223.469082 
L 623.337972 223.469082 
L 624.69112 223.98056 
L 626.044267 223.469082 
L 626.720841 224.481809 
L 627.397414 225.740045 
L 628.073988 226.497033 
L 628.750562 226.752772 
L 629.427135 226.752772 
L 630.103709 226.998282 
L 631.456856 226.998282 
L 632.810003 225.995784 
L 633.486577 225.995784 
L 634.839724 225.484306 
L 635.516298 224.22607 
L 636.192872 223.98056 
L 636.869445 223.223572 
L 637.546019 222.967833 
L 638.222592 223.98056 
L 638.899166 223.469082 
L 639.57574 221.965336 
L 640.252313 220.962838 
L 640.928887 221.464087 
L 641.605461 221.464087 
L 642.282034 221.208348 
L 642.958608 221.709597 
L 643.635182 222.967833 
L 644.311755 225.484306 
L 644.988329 226.241294 
L 645.664902 226.497033 
L 650.400918 226.497033 
L 651.754065 225.995784 
L 653.783786 225.995784 
L 654.46036 221.709597 
L 655.813507 217.454097 
L 656.490081 224.727318 
L 657.166654 225.484306 
L 657.843228 225.484306 
L 658.519802 223.724821 
L 659.196375 222.466584 
L 659.872949 222.221075 
L 661.226096 225.484306 
L 661.90267 226.752772 
L 662.579243 226.998282 
L 663.932391 226.998282 
L 664.608964 226.752772 
L 665.962112 225.740045 
L 666.638685 225.740045 
L 667.315259 224.727318 
L 667.991833 224.727318 
L 668.668406 221.709597 
L 669.34498 221.464087 
L 670.021553 220.46159 
L 670.698127 218.456595 
L 671.374701 218.456595 
L 672.051274 219.960341 
L 672.727848 219.960341 
L 673.404422 219.459092 
L 674.080995 216.69711 
L 674.757569 216.4516 
L 675.434143 216.952849 
L 676.110716 216.4516 
L 676.78729 219.704602 
L 677.463863 224.727318 
L 678.140437 226.241294 
L 678.817011 226.752772 
L 679.493584 226.752772 
L 680.170158 226.998282 
L 681.523305 226.497033 
L 682.199879 226.497033 
L 682.876453 226.241294 
L 683.553026 226.241294 
L 684.2296 225.995784 
L 684.906174 226.241294 
L 685.582747 226.241294 
L 686.259321 225.995784 
L 686.935894 225.995784 
L 687.612468 224.983057 
L 688.289042 224.727318 
L 688.965615 224.727318 
L 689.642189 223.98056 
L 690.318763 221.709597 
L 690.995336 217.198358 
L 691.67191 224.727318 
L 692.348484 224.727318 
L 693.025057 223.724821 
L 693.701631 222.967833 
L 694.378204 223.223572 
L 695.054778 224.727318 
L 695.731352 225.238797 
L 696.407925 225.484306 
L 697.761073 224.983057 
L 698.437646 224.22607 
L 699.11422 224.481809 
L 699.790794 224.22607 
L 700.467367 224.22607 
L 701.143941 223.724821 
L 701.820514 223.724821 
L 702.497088 223.223572 
L 703.173662 223.469082 
L 703.850235 220.20585 
L 704.526809 219.459092 
L 705.203383 218.957843 
L 705.879956 218.957843 
L 706.55653 217.699607 
L 707.233104 217.955346 
L 707.909677 218.702104 
L 709.262824 217.699607 
L 709.939398 217.699607 
L 710.615972 217.955346 
L 711.292545 220.20585 
L 711.969119 223.98056 
L 712.645693 224.727318 
L 715.351987 224.727318 
L 717.381708 225.484306 
L 718.058282 225.238797 
L 719.411429 225.238797 
L 720.088003 225.484306 
L 720.764576 231.294699 
L 721.44115 226.998282 
L 722.117724 229.023736 
L 722.794297 229.780723 
L 724.824018 206.723283 
L 725.500592 191.869955 
L 726.177165 220.707099 
L 726.853739 220.20585 
L 727.530313 220.46159 
L 728.206886 221.464087 
L 728.88346 222.967833 
L 729.560034 223.223572 
L 730.236607 222.967833 
L 730.913181 222.221075 
L 732.266328 221.208348 
L 732.942902 221.208348 
L 733.619475 221.464087 
L 734.296049 221.464087 
L 734.972623 220.962838 
L 735.649196 220.20585 
L 736.32577 218.702104 
L 737.002344 218.702104 
L 737.678917 213.945357 
L 739.032065 214.446605 
L 739.708638 213.454337 
L 740.385212 213.699847 
L 741.061785 213.198598 
L 741.738359 214.947854 
L 742.414933 217.699607 
L 743.091506 218.200856 
L 743.76808 216.952849 
L 745.121227 219.459092 
L 745.797801 221.709597 
L 746.474375 221.965336 
L 747.827522 221.965336 
L 748.504095 222.221075 
L 749.180669 221.965336 
L 749.857243 222.466584 
L 753.240111 222.466584 
L 753.916685 223.98056 
L 755.269832 228.266748 
L 755.946406 228.011009 
L 756.622979 206.477774 
L 757.299553 174.919565 
L 757.976126 150.276543 
L 758.6527 144.435461 
L 759.329274 137.62257 
L 760.005847 211.705082 
L 760.682421 214.446605 
L 762.035568 218.456595 
L 762.712142 219.459092 
L 763.388716 219.203353 
L 764.065289 218.702104 
L 764.741863 217.699607 
L 765.418436 217.699607 
L 766.771584 218.702104 
L 768.124731 218.200856 
L 768.801305 217.699607 
L 769.477878 216.952849 
L 770.154452 217.198358 
L 770.831026 212.20633 
L 771.507599 213.454337 
L 772.184173 211.705082 
L 772.860746 211.459572 
L 773.53732 210.211565 
L 774.213894 211.459572 
L 774.890467 210.702584 
L 775.567041 210.211565 
L 776.243615 213.454337 
L 776.920188 213.454337 
L 777.596762 214.201096 
L 778.949909 218.456595 
L 779.626483 219.459092 
L 780.303056 219.960341 
L 780.97963 219.960341 
L 781.656204 220.20585 
L 782.332777 219.960341 
L 783.009351 220.20585 
L 783.685925 220.707099 
L 785.039072 220.20585 
L 786.392219 220.20585 
L 787.068793 220.46159 
L 787.745367 218.456595 
L 788.42194 213.945357 
L 789.098514 200.022918 
L 789.775087 161.968936 
L 790.451661 132.026998 
L 791.128235 128.866063 
L 791.804808 100.591544 
L 792.481382 91.29287 
L 793.157956 96.192831 
L 793.834529 198.048612 
L 795.86425 211.203833 
L 796.540824 214.201096 
L 797.217397 214.947854 
L 797.893971 215.203593 
L 798.570545 214.702344 
L 799.247118 213.198598 
L 799.923692 213.454337 
L 800.600266 212.69735 
L 801.276839 212.20633 
L 801.953413 208.963558 
L 802.629987 209.955826 
L 803.30656 209.955826 
L 803.983134 197.547363 
L 804.659707 197.547363 
L 805.336281 194.836529 
L 806.012855 191.624445 
L 806.689428 186.704024 
L 807.366002 188.91361 
L 808.042576 199.777409 
L 808.719149 202.252963 
L 809.395723 203.74648 
L 810.072297 209.955826 
L 810.74887 211.459572 
L 811.425444 212.45184 
L 812.102017 216.195861 
L 812.778591 219.203353 
L 813.455165 219.459092 
L 814.131738 219.960341 
L 814.808312 220.20585 
L 815.484886 220.707099 
L 816.161459 220.20585 
L 816.838033 220.707099 
L 818.19118 220.20585 
L 818.867754 219.704602 
L 819.544328 219.704602 
L 820.220901 218.957843 
L 821.574048 196.309586 
L 822.250622 189.895649 
L 822.927196 184.975228 
L 823.603769 172.22919 
L 824.280343 166.367649 
L 825.63349 146.624588 
L 826.310064 154.900306 
L 826.986638 203.74648 
L 827.663211 210.958323 
L 828.339785 213.699847 
L 829.016358 214.201096 
L 829.692932 214.947854 
L 830.369506 215.203593 
L 831.046079 214.947854 
L 831.722653 215.950351 
L 832.399227 215.950351 
L 833.0758 215.449103 
L 833.752374 215.704842 
L 834.428948 216.195861 
L 835.105521 214.702344 
L 835.782095 214.947854 
L 836.458668 215.704842 
L 837.135242 213.699847 
L 837.811816 213.198598 
L 838.488389 210.702584 
L 839.164963 200.524167 
L 839.841537 201.761944 
L 841.194684 210.702584 
L 841.871258 214.446605 
L 842.547831 214.446605 
L 843.224405 214.702344 
L 843.900978 214.702344 
L 844.577552 214.947854 
L 845.254126 215.449103 
L 845.930699 218.957843 
L 846.607273 220.20585 
L 847.283847 220.962838 
L 848.636994 221.965336 
L 849.313568 221.709597 
L 849.990141 222.466584 
L 850.666715 222.722323 
L 851.343289 221.965336 
L 852.019862 222.466584 
L 853.373009 221.965336 
L 854.049583 221.464087 
L 855.40273 193.844261 
L 856.079304 193.598751 
L 856.755878 191.624445 
L 857.432451 179.082998 
L 858.109025 178.591979 
L 858.785599 171.492661 
L 859.462172 160.260598 
L 860.138746 197.301854 
L 860.815319 211.950591 
L 861.491893 215.203593 
L 862.168467 216.4516 
L 862.84504 218.200856 
L 863.521614 218.702104 
L 864.198188 218.200856 
L 864.874761 218.702104 
L 865.551335 218.957843 
L 866.227909 217.955346 
L 866.904482 218.957843 
L 868.257629 218.456595 
L 868.934203 218.456595 
L 869.610777 217.699607 
L 870.28735 218.957843 
L 870.963924 217.699607 
L 871.640498 217.198358 
L 872.317071 205.731016 
L 872.993645 204.984257 
L 873.670219 206.723283 
L 874.346792 207.470042 
L 875.023366 209.464807 
L 875.699939 216.952849 
L 876.376513 216.952849 
L 877.053087 217.454097 
L 877.72966 217.699607 
L 878.406234 217.699607 
L 879.082808 218.957843 
L 880.435955 221.709597 
L 881.112529 222.722323 
L 881.789102 223.223572 
L 883.142249 223.223572 
L 883.818823 223.469082 
L 884.495397 223.223572 
L 885.17197 223.223572 
L 885.848544 222.967833 
L 886.525118 222.967833 
L 887.201691 222.221075 
L 887.878265 216.952849 
L 888.554839 204.493238 
L 889.231412 202.754212 
L 889.907986 204.493238 
L 890.58456 201.761944 
L 891.261133 201.015186 
L 891.937707 199.03065 
L 892.61428 197.792873 
L 893.290854 213.699847 
L 893.967428 219.459092 
L 894.644001 220.46159 
L 895.320575 220.46159 
L 895.997149 220.962838 
L 896.673722 221.709597 
L 897.350296 221.709597 
L 898.02687 221.464087 
L 898.703443 221.965336 
L 900.05659 221.965336 
L 901.409738 222.967833 
L 902.086311 222.967833 
L 902.762885 222.466584 
L 903.439459 222.221075 
L 904.116032 222.967833 
L 904.792606 222.466584 
L 905.46918 222.722323 
L 906.145753 219.459092 
L 906.822327 219.203353 
L 907.4989 219.960341 
L 908.175474 219.704602 
L 908.852048 222.466584 
L 909.528621 222.722323 
L 910.205195 222.722323 
L 910.881769 222.967833 
L 911.558342 221.965336 
L 912.234916 222.221075 
L 913.588063 223.223572 
L 915.617784 223.98056 
L 917.647505 223.98056 
L 918.324079 224.22607 
L 919.000652 223.98056 
L 919.677226 223.98056 
L 920.3538 223.724821 
L 921.030373 221.709597 
L 921.706947 203.99199 
L 922.383521 179.574017 
L 923.060094 161.723426 
L 923.736668 152.22016 
L 924.413241 149.785523 
L 925.089815 103.52743 
L 925.766389 74.066282 
L 926.442962 194.58079 
L 927.119536 211.950591 
L 927.79611 213.198598 
L 928.472683 216.952849 
L 929.825831 221.208348 
L 930.502404 221.464087 
L 931.855551 220.46159 
L 932.532125 220.962838 
L 933.208699 220.707099 
L 933.885272 221.464087 
L 934.561846 221.965336 
L 935.914993 222.466584 
L 936.591567 222.466584 
L 937.268141 222.967833 
L 937.944714 223.223572 
L 938.621288 222.466584 
L 939.297861 222.967833 
L 939.974435 218.456595 
L 940.651009 215.449103 
L 941.327582 217.955346 
L 942.004156 223.469082 
L 943.357303 223.469082 
L 944.710451 221.464087 
L 945.387024 221.464087 
L 946.063598 221.709597 
L 946.740171 222.221075 
L 947.416745 222.967833 
L 948.093319 223.469082 
L 948.769892 223.223572 
L 952.152761 223.223572 
L 953.505908 222.722323 
L 954.182482 221.965336 
L 954.859055 220.962838 
L 956.212202 202.754212 
L 956.888776 197.547363 
L 957.56535 189.15912 
L 958.241923 189.650139 
L 958.918497 180.310546 
L 959.595071 211.705082 
L 960.271644 216.195861 
L 960.948218 216.4516 
L 961.624792 216.952849 
L 962.301365 216.69711 
L 962.977939 217.955346 
L 963.654512 221.965336 
L 964.331086 222.722323 
L 965.00766 222.722323 
L 965.684233 222.967833 
L 966.360807 222.466584 
L 967.037381 222.466584 
L 967.713954 222.722323 
L 968.390528 223.223572 
L 969.067102 223.469082 
L 969.743675 223.469082 
L 970.420249 223.724821 
L 971.773396 223.724821 
L 972.44997 222.967833 
L 973.803117 223.469082 
L 975.156264 223.469082 
L 975.832838 223.724821 
L 977.862559 223.724821 
L 978.539132 222.967833 
L 979.215706 222.967833 
L 980.568853 223.98056 
L 981.245427 224.727318 
L 982.598574 224.727318 
L 983.275148 224.481809 
L 983.951722 224.481809 
L 984.628295 224.22607 
L 985.304869 223.724821 
L 985.981443 223.469082 
L 986.658016 222.722323 
L 987.33459 222.466584 
L 988.011163 221.464087 
L 988.687737 218.200856 
L 989.364311 213.699847 
L 990.040884 207.470042 
L 990.717458 184.238699 
L 991.394032 200.022918 
L 992.070605 198.785141 
L 992.747179 197.792873 
L 993.423753 202.252963 
L 994.100326 205.485506 
L 994.7769 206.723283 
L 995.453473 207.224532 
L 996.130047 213.945357 
L 996.806621 219.203353 
L 997.483194 220.46159 
L 998.159768 220.962838 
L 998.836342 221.208348 
L 1002.21921 221.208348 
L 1003.572357 221.709597 
L 1004.248931 221.709597 
L 1004.925504 221.965336 
L 1005.602078 220.707099 
L 1006.278652 218.957843 
L 1006.955225 219.459092 
L 1007.631799 220.20585 
L 1008.984946 221.208348 
L 1010.338093 221.709597 
L 1011.014667 222.722323 
L 1011.691241 221.965336 
L 1013.044388 219.960341 
L 1013.720962 220.20585 
L 1015.074109 223.223572 
L 1015.750683 223.469082 
L 1017.10383 223.469082 
L 1017.780403 223.223572 
L 1019.133551 222.221075 
L 1019.810124 221.965336 
L 1020.486698 221.464087 
L 1021.163272 220.707099 
L 1021.839845 220.46159 
L 1022.516419 217.454097 
L 1023.192993 216.4516 
L 1023.869566 208.46231 
L 1024.54614 205.485506 
L 1025.222714 204.984257 
L 1025.899287 205.229767 
L 1028.605582 207.224532 
L 1029.282155 209.464807 
L 1030.635303 220.46159 
L 1031.311876 221.709597 
L 1031.98845 221.709597 
L 1032.665024 221.965336 
L 1036.724465 221.965336 
L 1037.401039 221.208348 
L 1038.754186 216.952849 
L 1040.107334 211.203833 
L 1040.783907 211.459572 
L 1041.460481 212.45184 
L 1042.137054 212.69735 
L 1042.813628 212.69735 
L 1043.490202 214.201096 
L 1044.166775 214.947854 
L 1044.843349 214.947854 
L 1045.519923 215.449103 
L 1046.196496 215.203593 
L 1046.87307 215.203593 
L 1047.549644 215.449103 
L 1048.226217 219.960341 
L 1048.902791 222.466584 
L 1049.579364 222.967833 
L 1050.255938 222.722323 
L 1052.285659 222.722323 
L 1053.638806 222.221075 
L 1054.31538 221.709597 
L 1054.991954 221.464087 
L 1055.668527 220.962838 
L 1056.345101 219.960341 
L 1057.021675 219.704602 
L 1057.698248 215.704842 
L 1058.374822 215.203593 
L 1059.051395 210.702584 
L 1059.727969 208.963558 
L 1060.404543 209.209068 
L 1061.081116 209.955826 
L 1061.75769 209.209068 
L 1062.434264 209.464807 
L 1063.110837 210.958323 
L 1063.787411 213.945357 
L 1064.463985 216.195861 
L 1065.140558 218.957843 
L 1065.817132 220.707099 
L 1066.493705 221.965336 
L 1067.170279 222.722323 
L 1067.846853 222.967833 
L 1069.2 222.967833 
L 1069.2 222.967833 
" clip-path="url(#p1a01d20223)" style="fill: none; stroke: #ff0000; stroke-opacity: 0.65; stroke-width: 1.5; stroke-linecap: square"/>
   </g>
   <g id="line2d_28">
    <path d="M 63.135 157.850513 
L 1069.2 157.850513 
" clip-path="url(#p1a01d20223)" style="fill: none; stroke-dasharray: 11.1,4.8; stroke-dashoffset: 0; stroke: #0000ff; stroke-width: 3"/>
   </g>
   <g id="line2d_29">
    <path d="M 63.135 113.286435 
L 1069.2 113.286435 
" clip-path="url(#p1a01d20223)" style="fill: none; stroke-dasharray: 11.1,4.8; stroke-dashoffset: 0; stroke: #008000; stroke-width: 3"/>
   </g>
   <g id="line2d_30">
    <path d="M -1 221.510552 
L 30.659465 223.427268 
L 63.135 223.32493 
L 128.086069 220.348595 
L 160.561604 219.914457 
L 193.037139 220.062274 
L 225.512673 219.86495 
L 257.988208 220.511224 
L 290.463742 219.706967 
L 322.939277 220.498586 
L 355.414812 220.604697 
L 387.890346 218.500049 
L 420.365881 216.907071 
L 452.841416 217.18393 
L 485.31695 217.760537 
L 517.792485 216.046104 
L 550.26802 215.375109 
L 582.743554 211.2423 
L 615.219089 211.449044 
L 647.694623 211.878984 
L 680.170158 215.190252 
L 712.645693 212.891306 
L 745.121227 211.77769 
L 777.596762 212.635056 
L 810.072297 211.393314 
L 842.547831 212.589044 
L 875.023366 214.449866 
L 907.4989 210.364092 
L 939.974435 214.311511 
L 972.44997 214.064574 
L 1004.925504 214.486501 
L 1037.401039 210.962266 
L 1069.876574 210.346958 
L 1081 210.421749 
L 1081 210.421749 
" clip-path="url(#p1a01d20223)" style="fill: none; stroke: #000000; stroke-width: 3; stroke-linecap: square"/>
   </g>
   <g id="patch_3">
    <path d="M 63.135 252.92 
L 63.135 17.64 
" style="fill: none; stroke: #000000; stroke-width: 0.8; stroke-linejoin: miter; stroke-linecap: square"/>
   </g>
   <g id="patch_4">
    <path d="M 1069.2 252.92 
L 1069.2 17.64 
" style="fill: none; stroke: #000000; stroke-width: 0.8; stroke-linejoin: miter; stroke-linecap: square"/>
   </g>
   <g id="patch_5">
    <path d="M 63.135 252.92 
L 1069.2 252.92 
" style="fill: none; stroke: #000000; stroke-width: 0.8; stroke-linejoin: miter; stroke-linecap: square"/>
   </g>
   <g id="patch_6">
    <path d="M 63.135 17.64 
L 1069.2 17.64 
" style="fill: none; stroke: #000000; stroke-width: 0.8; stroke-linejoin: miter; stroke-linecap: square"/>
   </g>
  </g>
 </g>
 <defs>
  <clipPath id="p1a01d20223">
   <rect x="63.135" y="17.64" width="1006.065" height="235.28"/>
  </clipPath>
 </defs>
</svg>
